<svg xmlns="http://www.w3.org/2000/svg" aria-hidden="true" style="position:absolute;width:0;height:0;overflow:hidden">
    <defs>
        <symbol id="icon-antenna" viewBox="0 0 32 32">
            <path fill="#2e2f42" d="m30.773 22.098-8.443-8.505.937-4.615c.242.094.499.144.758.146h.006a2.159 2.159 0 1 0-2.008-1.435l-4.96.605L8.972.161a.534.534 0 0 0-.377-.16.532.532 0 0 0-.373.155L6.709 1.66a.534.534 0 0 0 0 .754l.814.826a14.943 14.943 0 0 0 2.519 17.663.513.513 0 0 0 .146.098c-.034.18-.051.364-.052.547v6.187h-6.4a2.67 2.67 0 0 0-2.667 2.667v1.067c0 .295.239.533.533.533h24.533a.533.533 0 0 0 .533-.533v-1.067a2.67 2.67 0 0 0-2.667-2.667h-6.4v-2.742a15.09 15.09 0 0 0 3.049.32 14.854 14.854 0 0 0 7.04-1.783l.818.823a.534.534 0 0 0 .377.16.532.532 0 0 0 .373-.155l1.513-1.504a.534.534 0 0 0 0-.754zM23.28 6.233a1.067 1.067 0 1 1 .753 1.822h-.003a1.067 1.067 0 0 1-.747-1.823h-.002zm-1.256 3.505-.598 2.946-1.175-1.182 1.774-1.763zm-.605-.902-1.92 1.909-1.485-1.493 3.405-.415zM24.004 28.8a1.6 1.6 0 0 1 1.6 1.6v.533H2.137V30.4a1.6 1.6 0 0 1 1.6-1.6h20.267zm-7.467-2.133v1.067h-5.333v-1.067h5.333zM11.204 25.6v-4.053c0-1.294 1.196-2.347 2.667-2.347s2.667 1.053 2.667 2.347V25.6h-5.333zm6.4-1.696v-2.357c0-1.882-1.675-3.413-3.733-3.413a3.8 3.8 0 0 0-3.281 1.786A13.87 13.87 0 0 1 8.311 4.033l18.602 18.708a13.818 13.818 0 0 1-9.309 1.163zm11.289-.684L7.836 2.039l.755-.752 7.935 7.98c.004 0 .006.007.01.01l13.115 13.191-.757.752z" style="fill:var(--color1, #2e2f42)"/>
            <path fill="#4d5ae5" d="M13.876 20.267h-.005a1.6 1.6 0 1 0-.004 3.2h.005a1.6 1.6 0 1 0 .004-3.2zm.373 1.978a.534.534 0 0 1-.752-.756.534.534 0 0 1 .373-.155.534.534 0 0 1 .374.911h.005z" style="fill:var(--color2, #4d5ae5)"/>
        </symbol>
        <symbol id="icon-astronaut" viewBox="0 0 32 32">
            <path fill="#4d5ae5" d="M31.974 4.524a.534.534 0 0 0-.43-.363l-1.91-.278-.855-1.731c-.179-.365-.777-.365-.956 0l-.855 1.731-1.91.278a.535.535 0 0 0-.296.91l1.383 1.348-.326 1.903c-.034.2.048.402.212.522a.53.53 0 0 0 .562.04l1.709-.899 1.709.899a.536.536 0 0 0 .775-.563l-.326-1.903 1.383-1.348a.536.536 0 0 0 .135-.547zm-2.463 1.327a.534.534 0 0 0-.153.472l.191 1.114-1-.526a.533.533 0 0 0-.498 0l-1.001.526.191-1.114a.534.534 0 0 0-.153-.472l-.81-.789 1.119-.163a.532.532 0 0 0 .402-.292l.5-1.013.5 1.013a.535.535 0 0 0 .402.292l1.119.163-.809.789zM26.133 20.522h-1.067v1.067h1.067v-1.067zM26.133 22.656h-1.067v1.067h1.067v-1.067zM27.2 21.589h-1.067v1.067H27.2v-1.067zM25.067 21.589H24v1.067h1.067v-1.067zM22.4 26.389h-1.067v1.067H22.4v-1.067zM22.4 28.522h-1.067v1.067H22.4v-1.067zM23.467 27.456H22.4v1.067h1.067v-1.067zM21.333 27.456h-1.067v1.067h1.067v-1.067zM16 24.256h-1.067v1.067H16v-1.067zM16 26.389h-1.067v1.067H16v-1.067zM17.067 25.322H16v1.067h1.067v-1.067zM14.933 25.322h-1.067v1.067h1.067v-1.067zM5.867 6.122H4.8v1.067h1.067V6.122zM5.867 8.255H4.8v1.067h1.067V8.255z" style="fill:var(--color2, #4d5ae5)"/>
            <path fill="#4d5ae5" d="M6.933 7.189H5.866v1.067h1.067V7.189zM4.8 7.189H3.733v1.067H4.8V7.189z" style="fill:var(--color2, #4d5ae5)"/>
            <path fill="#2e2f42" d="M24.715 14.159a1.775 1.775 0 0 0-1.188-.705 1.778 1.778 0 0 0-1.34.352l-1.252.96-1.898 1.417-1.358-.541c2.421-1.086 4.114-3.508 4.114-6.32 0-3.823-3.123-6.933-6.961-6.933s-6.961 3.11-6.961 6.933a6.86 6.86 0 0 0 1.12 3.758l-2.764-.024h-.005c-.009 0-.015.004-.023.005a.515.515 0 0 0-.155.031l-.038.013c-.006.003-.013.003-.019.006l-3.233 1.596-.001.001-1.893.911a.397.397 0 0 0-.063.035 1.779 1.779 0 0 0-.598 2.295c.22.429.595.745 1.056.889a1.776 1.776 0 0 0 1.378-.128l1.388-.738 2.264-1.169 1.357-.008L2.2 22.211l-.002.001-1.339 1.333c-.316.315-.49.732-.49 1.178s.174.863.49 1.179c.325.323.752.485 1.179.485s.854-.162 1.18-.485l1.314-1.309 1.741-1.3.901.897-1.762 1.754-.002.001-1.339 1.333c-.316.315-.49.732-.49 1.178s.174.863.49 1.179c.325.323.753.485 1.18.485s.855-.162 1.18-.485l3.482-3.467.001-.002 1.01-1-.004-.004c.006-.006.015-.009.022-.015l5.166-5.658 3.471.494a.52.52 0 0 0 .262-.033c.018-.006.033-.015.05-.023.019-.01.039-.015.058-.027l3.213-2.133c.012-.008.018-.021.029-.029.013-.01.029-.014.041-.026l1.271-1.191c.662-.62.753-1.635.212-2.362zM2.13 17.77a.714.714 0 0 1-.558.052.717.717 0 0 1-.213-1.26l1.314-.632.449 1.313-.992.527zm3.498-1.828-1.548.8-.439-1.283 2.027-1.001-.04 1.484zm15.099-6.62a5.79 5.79 0 0 1-.599 2.559l-4.181-1.899a1.863 1.863 0 0 0-.788-1.388l1.464-4.86c2.378.756 4.105 2.974 4.105 5.588zm-11.789 0c0-3.235 2.644-5.867 5.894-5.867.253 0 .5.021.745.052l-1.432 4.754c-.019-.001-.037-.006-.057-.006-1.033 0-1.873.837-1.873 1.867s.84 1.867 1.873 1.867c.694 0 1.294-.383 1.618-.945l3.862 1.755a5.894 5.894 0 0 1-4.737 2.39c-3.25 0-5.894-2.632-5.894-5.867zm5.956.8c0 .441-.362.8-.806.8s-.806-.359-.806-.8c0-.441.362-.8.806-.8s.806.359.806.8zM2.465 25.146a.608.608 0 0 1-.854.001.592.592 0 0 1 0-.844l.962-.958.851.848-.959.955zm3.214 3.734a.608.608 0 0 1-.855.001.592.592 0 0 1 0-.844l.963-.959.852.848-.96.955zm3.481-3.469-.002.001-1.765 1.76-.852-.848 1.763-1.755.002-.001c.04-.04.065-.088.09-.135.007-.014.02-.026.026-.04.017-.041.019-.085.026-.129.003-.025.014-.047.014-.073 0-.036-.013-.07-.02-.106-.006-.032-.006-.065-.019-.095a.55.55 0 0 0-.091-.138c-.01-.012-.014-.027-.025-.038h-.001l-.001-.002-1.607-1.6c-.017-.017-.039-.024-.058-.038a.507.507 0 0 0-.087-.058.515.515 0 0 0-.093-.033.507.507 0 0 0-.103-.02.5.5 0 0 0-.095.005.53.53 0 0 0-.104.02.477.477 0 0 0-.094.045c-.02.011-.042.015-.061.029L4.23 23.486l-.901-.897 2.399-2.386 4.361 4.289-.928.919zm6.819-7.017c-.015-.002-.03.004-.045.003a.556.556 0 0 0-.3.075.492.492 0 0 0-.083.061c-.013.011-.028.017-.04.029l-4.698 5.146-4.328-4.257 2.833-2.818a.534.534 0 0 0-.379-.911v-.001l-2.219.013.028-1.607 3.104.027a6.947 6.947 0 0 0 4.981 2.101c.437 0 .864-.045 1.279-.123.04.032.079.065.13.085l2.41.96.152.758.178.885-3.003-.427zm4.041.178-.313-1.558 1.446-1.08.947 1.257-2.08 1.381zm3.754-2.831-.838.785-.931-1.236.831-.637a.735.735 0 0 1 .543-.143.718.718 0 0 1 .48.284.713.713 0 0 1-.085.947z" style="fill:var(--color1, #2e2f42)"/>
            <path fill="#2e2f42" d="m13.602 18.544-2.143-2.133a.534.534 0 0 0-.753 0l-2.142 2.133a.537.537 0 0 0 0 .756l2.142 2.133a.536.536 0 0 0 .753 0l2.143-2.133a.535.535 0 0 0 0-.756zm-2.519 1.759-1.387-1.381 1.387-1.381 1.387 1.381-1.387 1.381zM17.164 5.071l-.258 1.036c.071.018 1.738.452 1.738 2.149h1.067c0-2.017-1.666-2.965-2.547-3.185zM19.711 9.322h-1.067v1.067h1.067V9.322z" style="fill:var(--color1, #2e2f42)"/>
        </symbol>
        <symbol id="icon-clock" viewBox="0 0 32 32">
            <path fill="#2e2f42" d="M31.297 15.301C31.295 6.849 24.442-.002 15.989 0S.686 6.855.688 15.308a15.304 15.304 0 0 0 10.649 14.576.662.662 0 0 0 .529-.065.637.637 0 0 0 .283-.356l3.865-12.25a1.912 1.912 0 1 0-.84-3.635l-5.106-5.107a.637.637 0 0 0-.902.902l5.103 5.109a1.876 1.876 0 0 0 .536 2.309l-3.683 11.673C3.844 25.783.118 17.71 2.799 10.432S13.553-.572 20.831 2.109c7.278 2.681 11.004 10.754 8.323 18.032a14.042 14.042 0 0 1-7.462 7.973l-.398-1.874a.637.637 0 0 0-1.049-.344l-3.837 3.426a.637.637 0 0 0 .231 1.084l4.899 1.564a.638.638 0 0 0 .819-.74l-.391-1.839a15.255 15.255 0 0 0 9.329-14.089zm-15.305-.637a.638.638 0 1 1 0 1.277.638.638 0 0 1 0-1.277zm2.101 14.864 2.184-1.948.603 2.84-2.787-.892z" style="fill:var(--color1, #2e2f42)"/>
            <path fill="#4d5ae5" d="M15.354 3.185V4.46a.638.638 0 1 0 1.276 0V3.185a.638.638 0 0 0-1.276 0zM3.876 14.664a.638.638 0 0 0 0 1.276h1.275a.638.638 0 1 0 0-1.276H3.876zM28.108 15.939a.638.638 0 1 0 0-1.276h-1.275a.638.638 0 0 0 0 1.276h1.275z" style="fill:var(--color2, #4d5ae5)"/>
        </symbol>
        <symbol id="icon-diagram" viewBox="0 0 32 32">
            <path fill="#4d5ae5" d="M14.925 14.965h1.066v4.798h-1.066v-4.797zM19.19 17.097h1.066v2.665H19.19v-2.665zM10.661 18.696h1.066v1.066h-1.066v-1.066zM7.463 18.163h1.066v1.599H7.463v-1.599z" style="fill:var(--color2, #4d5ae5)"/>
            <path fill="#2e2f42" d="M1.599 28.291h25.587a1.6 1.6 0 0 0 1.599-1.599V24.56a1.6 1.6 0 0 0-1.599-1.599h-.533V9.668L29.681 6.8a1.608 1.608 0 1 0-.746-.763L26.654 8.2V6.97a1.6 1.6 0 0 0-1.599-1.599H3.733A1.6 1.6 0 0 0 2.134 6.97v15.992h-.533a1.6 1.6 0 0 0-1.599 1.599v2.132a1.6 1.6 0 0 0 1.599 1.599zM30.384 4.837a.533.533 0 1 1 0 1.067.533.533 0 0 1 0-1.067zM3.198 6.969c0-.294.239-.533.533-.533h21.322c.294 0 .533.239.533.533v2.239l-1.066 1.013V8.035a.533.533 0 0 0-.533-.533H4.797a.533.533 0 0 0-.533.533v13.326c0 .294.239.533.533.533h19.19a.533.533 0 0 0 .533-.533v-9.674l1.066-1.01v12.284H3.198V6.969zm4.798 6.93a1.598 1.598 0 1 0 1.107 2.749l1.853.93a.532.532 0 0 0 .636-.123l3.939-4.431 3.872 2.901a.533.533 0 0 0 .686-.039l3.365-3.188v8.131H5.33V8.569h18.124v2.66l-3.771 3.572-3.904-2.927a.533.533 0 0 0-.718.072l-3.993 4.493-1.493-.746c.011-.064.018-.129.02-.193a1.6 1.6 0 0 0-1.599-1.599zm.533 1.599a.533.533 0 1 1-1.067 0 .533.533 0 0 1 1.067 0zm3.198 8.529h5.331v.533a.533.533 0 0 1-.533.533h-4.264a.533.533 0 0 1-.533-.533v-.533zm-10.661.533c0-.294.239-.533.533-.533h9.062v.533a1.6 1.6 0 0 0 1.599 1.599h4.264a1.6 1.6 0 0 0 1.599-1.599v-.533h9.062c.294 0 .533.239.533.533v2.132a.533.533 0 0 1-.533.533H1.598a.533.533 0 0 1-.533-.533V24.56z" style="fill:var(--color1, #2e2f42)"/>
        </symbol>
        <symbol id="icon-facebook" viewBox="0 0 32 32">
            <path d="M21.329 5.313h2.921V.225C23.746.156 22.013 0 19.994 0c-4.212 0-7.097 2.649-7.097 7.519V12H8.249v5.688h4.648V32h5.699V17.689h4.46l.708-5.688h-5.169V8.082c.001-1.644.444-2.769 2.735-2.769z"/>
        </symbol>
        <symbol id="icon-instagram" viewBox="0 0 32 32">
            <path d="M31.969 9.408c-.075-1.7-.35-2.869-.744-3.882a7.803 7.803 0 0 0-1.85-2.838A7.867 7.867 0 0 0 26.543.844C25.524.45 24.361.175 22.661.1 20.948.019 20.404 0 16.06 0s-4.888.019-6.595.094c-1.7.075-2.869.35-3.882.744a7.803 7.803 0 0 0-2.838 1.85A7.867 7.867 0 0 0 .901 5.52C.507 6.539.232 7.702.157 9.402c-.081 1.713-.1 2.257-.1 6.601s.019 4.888.094 6.595c.075 1.7.35 2.869.744 3.882a7.895 7.895 0 0 0 1.85 2.838 7.867 7.867 0 0 0 2.832 1.844c1.019.394 2.182.669 3.882.744 1.706.075 2.25.094 6.595.094s4.888-.019 6.595-.094c1.7-.075 2.869-.35 3.882-.744a8.181 8.181 0 0 0 4.682-4.682c.394-1.019.669-2.182.744-3.882.075-1.707.094-2.25.094-6.595s-.006-4.888-.081-6.595zm-2.882 13.065c-.069 1.563-.331 2.407-.55 2.969a5.31 5.31 0 0 1-3.038 3.038c-.563.219-1.413.481-2.969.55-1.688.075-2.194.094-6.464.094s-4.782-.019-6.464-.094c-1.563-.069-2.407-.331-2.969-.55a4.926 4.926 0 0 1-1.838-1.194 4.974 4.974 0 0 1-1.194-1.838c-.219-.563-.481-1.413-.55-2.969-.075-1.688-.094-2.194-.094-6.464s.019-4.782.094-6.464c.069-1.563.331-2.407.55-2.969a4.868 4.868 0 0 1 1.2-1.838A4.974 4.974 0 0 1 6.639 3.55c.563-.219 1.413-.481 2.969-.55 1.688-.075 2.194-.094 6.464-.094 4.276 0 4.782.019 6.464.094 1.563.069 2.407.331 2.969.55a4.914 4.914 0 0 1 1.838 1.194 4.974 4.974 0 0 1 1.194 1.838c.219.563.481 1.413.55 2.969.075 1.688.094 2.194.094 6.464s-.019 4.77-.094 6.458z"/>
            <path d="M16.059 7.783c-4.538 0-8.22 3.682-8.22 8.22s3.682 8.22 8.22 8.22 8.22-3.682 8.22-8.22-3.682-8.22-8.22-8.22zm0 13.552a5.333 5.333 0 0 1 0-10.664 5.333 5.333 0 0 1 0 10.664zM26.524 7.458a1.919 1.919 0 1 1-3.838 0 1.919 1.919 0 0 1 3.838 0z"/>
        </symbol>
        <symbol id="icon-linkedin" viewBox="0 0 32 32">
            <path d="M31.992 32v-.001H32V20.263c0-5.741-1.236-10.164-7.948-10.164-3.227 0-5.392 1.771-6.276 3.449h-.093v-2.913h-6.364v21.364h6.627V21.42c0-2.785.528-5.479 3.977-5.479 3.399 0 3.449 3.179 3.449 5.657v10.401h6.62zM.528 10.636h6.635V32H.528V10.636zM3.843 0C1.722 0 0 1.721 0 3.843s1.721 3.879 3.843 3.879c2.121 0 3.843-1.757 3.843-3.879A3.846 3.846 0 0 0 3.843 0z"/>
        </symbol>
        <symbol id="icon-twitter" viewBox="0 0 32 32">
            <path d="M32 6.078c-1.19.522-2.458.868-3.78 1.036a6.523 6.523 0 0 0 2.886-3.626 13.11 13.11 0 0 1-4.16 1.588A6.574 6.574 0 0 0 22.154 3c-3.632 0-6.556 2.948-6.556 6.562 0 .52.044 1.02.152 1.496-5.454-.266-10.28-2.88-13.522-6.862a6.605 6.605 0 0 0-.898 3.316 6.57 6.57 0 0 0 2.914 5.452 6.479 6.479 0 0 1-2.964-.808v.072c0 3.188 2.274 5.836 5.256 6.446a6.548 6.548 0 0 1-1.72.216 5.8 5.8 0 0 1-1.242-.112c.85 2.598 3.262 4.508 6.13 4.57a13.182 13.182 0 0 1-8.134 2.798c-.538 0-1.054-.024-1.57-.09A18.469 18.469 0 0 0 10.064 29c12.072 0 18.672-10 18.672-18.668 0-.29-.01-.57-.024-.848A13.087 13.087 0 0 0 32 6.078z"/>
        </symbol>
        <symbol id="icon-checkmark" viewBox="0 0 40 32">
            <path d="M33.784 1.020c0.659-0.637 1.558-1.030 2.548-1.030 2.007 0 3.637 1.611 3.668 3.611l0 0.003c0.001 0.028 0.001 0.061 0.001 0.095 0 0.965-0.368 1.844-0.972 2.504l0.003-0.003-19.576 24.616c-0.674 0.728-1.635 1.182-2.702 1.182-0.495 0-0.967-0.098-1.398-0.275l0.024 0.009c-0.477-0.197-0.884-0.473-1.224-0.816l-0-0-12.984-13.052c-0.724-0.677-1.175-1.638-1.175-2.705 0-0.501 0.1-0.98 0.28-1.416l-0.009 0.025c0.564-1.367 1.887-2.312 3.43-2.312 0.018 0 0.035 0 0.053 0l-0.003-0c1.038 0.019 1.967 0.467 2.622 1.174l0.002 0.002 10.276 10.328 17.040-21.832c0.032-0.039 0.065-0.074 0.1-0.108l-0.004-0z"></path>
        </symbol>
        <symbol id="icon-tel" viewBox="0 0 32 32">
            <path d="M28.864 21.822l-4.524-0.517c-0.124-0.015-0.267-0.024-0.413-0.024-0.98 0-1.867 0.398-2.509 1.041l-3.276 3.276c-5.081-2.621-9.119-6.659-11.671-11.59l-0.070-0.149 3.298-3.296c0.642-0.641 1.038-1.528 1.038-2.507 0-0.146-0.009-0.289-0.026-0.43l0.002 0.017-0.517-4.49c-0.213-1.784-1.717-3.153-3.541-3.153-0.001 0-0.003 0-0.004 0h-3.082c-2.014 0-3.687 1.674-3.562 3.687 0.943 15.212 13.11 27.362 28.305 28.308 2.014 0.123 3.687-1.551 3.687-3.564v-3.082c0-0.006 0-0.013 0-0.020 0-1.811-1.363-3.303-3.12-3.506l-0.016-0.002z"></path>
        </symbol>
        <symbol id="icon-cross" viewBox="0 0 32 32">
            <path d="M32 3.224l-3.224-3.224-12.776 12.776-12.776-12.776-3.224 3.224 12.776 12.776-12.776 12.776 3.224 3.224 12.776-12.776 12.776 12.776 3.224-3.224-12.776-12.776 12.776-12.776z"></path>
        </symbol>
        <symbol id="icon-people" viewBox="0 0 32 32">
            <path d="M16 16c4.418 0 8-3.582 8-8s-3.582-8-8-8v0c-4.418 0-8 3.582-8 8s3.582 8 8 8v0zM16 20c-5.339 0-16 2.68-16 8v2c0 1.099 0.901 2 2 2h28c1.099 0 2-0.901 2-2v-2c0-5.32-10.661-8-16-8z"></path>
        </symbol>
        <symbol id="icon-letter" viewBox="0 0 43 32">
            <path d="M37.333 0h-32c-2.2 0-3.981 1.8-3.981 4l-0.019 24c0 2.2 1.8 4 4 4h32c2.2 0 4-1.8 4-4v-24c0-2.2-1.8-4-4-4zM36.533 8.501l-14.139 8.837c-0.302 0.188-0.668 0.3-1.060 0.3s-0.758-0.112-1.069-0.305l0.009 0.005-14.141-8.84c-0.503-0.301-0.835-0.843-0.835-1.463 0-0.938 0.761-1.699 1.699-1.699 0.349 0 0.673 0.105 0.943 0.285l-0.006-0.004 13.4 8.381 13.4-8.381c0.264-0.176 0.588-0.282 0.937-0.282 0.938 0 1.699 0.761 1.699 1.699 0 0.62-0.332 1.162-0.828 1.459l-0.008 0.004z"></path>
        </symbol>
        <symbol id="icon-send" viewBox="0 0 32 32">
            <path d="M32 2.667l-32 15 10.227 3.156 15.773-12.323-11.997 13.488 0.009 0.004-0.012-0.004v7.345l5.735-5.576 7.267 2.243 4.999-23.333z"></path>
        </symbol>
        <symbol id="icon-menu" viewBox="0 0 32 32">
<path d="M4.799 8.001c0-0.424 0.169-0.831 0.469-1.131s0.707-0.469 1.131-0.469h19.2c0.424 0 0.831 0.169 1.131 0.469s0.469 0.707 0.469 1.131-0.169 0.831-0.469 1.131c-0.3 0.3-0.707 0.469-1.131 0.469h-19.2c-0.424 0-0.831-0.169-1.131-0.469s-0.469-0.707-0.469-1.131z"></path>
<path d="M4.799 16.001c0-0.424 0.169-0.831 0.469-1.131s0.707-0.469 1.131-0.469h19.2c0.424 0 0.831 0.169 1.131 0.469s0.469 0.707 0.469 1.131c0 0.424-0.169 0.831-0.469 1.131s-0.707 0.469-1.131 0.469h-19.2c-0.424 0-0.831-0.169-1.131-0.469s-0.469-0.707-0.469-1.131z"></path>
<path d="M4.799 24.001c0-0.424 0.169-0.831 0.469-1.131s0.707-0.469 1.131-0.469h19.2c0.424 0 0.831 0.169 1.131 0.469s0.469 0.707 0.469 1.131c0 0.424-0.169 0.831-0.469 1.131s-0.707 0.469-1.131 0.469h-19.2c-0.424 0-0.831-0.169-1.131-0.469s-0.469-0.707-0.469-1.131z"></path>
</symbol>
<symbol id="icon-logo" viewBox="0 0 32 32">
<path d="M15.379 0.494c-0.366 0.087-0.754 0.317-1.066 0.622-0.912 0.901-0.949 2.344-0.083 3.275 0.377 0.411 0.788 0.64 1.323 0.743 0.358 0.068 0.546 0.068 0.904-0.008 0.795-0.162 1.515-0.78 1.779-1.526 0.117-0.335 0.147-1.044 0.056-1.387-0.113-0.437-0.298-0.746-0.656-1.097-0.354-0.35-0.652-0.523-1.070-0.622-0.282-0.068-0.912-0.068-1.187 0z"></path>
<path d="M5.332 0.95c-0.208 0.076-0.275 0.143-0.346 0.369-0.14 0.407-0.056 1.138 0.2 1.832 0.346 0.927 0.859 1.711 1.632 2.487 0.694 0.697 1.478 1.134 3.259 1.828 1.379 0.535 1.647 0.64 2.069 0.836 0.818 0.373 1.338 0.731 1.715 1.187 0.245 0.298 0.539 0.893 0.648 1.311 0.117 0.453 0.136 1.108 0.053 1.639-0.121 0.776-0.486 1.7-0.875 2.197-0.173 0.222-0.441 0.459-0.52 0.459-0.049 0-0.23-0.192-0.622-0.656-0.298-0.354-0.633-0.644-1.044-0.916-0.369-0.241-0.626-0.362-1.726-0.81-2.133-0.867-3.354-1.602-4.251-2.555-0.833-0.885-1.258-1.835-1.424-3.18-0.068-0.566-0.023-1.813 0.094-2.6 0.053-0.35 0.087-0.652 0.076-0.671-0.132-0.211-0.644 0.633-1.081 1.779-0.531 1.39-0.776 2.713-0.807 4.397-0.027 1.368 0.072 2.336 0.362 3.539 0.64 2.634 2.272 5.434 4.3 7.374 0.946 0.908 1.447 1.297 2.676 2.077 1.116 0.708 1.070 0.682 1.142 0.652 0.196-0.076-0.109-0.761-0.663-1.492-0.698-0.92-2.347-2.641-3.304-3.452-0.667-0.566-1.066-0.972-1.289-1.319-0.222-0.339-0.814-1.481-0.743-1.428 0.027 0.023 0.204 0.158 0.388 0.301s0.607 0.471 0.942 0.731c0.335 0.26 0.923 0.69 1.303 0.949 0.833 0.573 1.198 0.863 1.628 1.285 0.731 0.727 1.616 1.989 2.125 3.030 0.463 0.949 0.704 1.854 0.881 3.308 0.064 0.516 0.132 0.98 0.15 1.025 0.056 0.14 0.173 0.109 0.237-0.060 0.169-0.422 0.29-1.458 0.29-2.487 0-1.587-0.298-2.834-1.025-4.28-0.731-1.458-1.719-2.499-3.252-3.425-1.297-0.788-1.945-1.27-2.544-1.892-0.723-0.754-1.319-1.68-1.684-2.627-0.117-0.301-0.286-0.931-0.26-0.957 0.004-0.004 0.154 0.173 0.332 0.395 0.829 1.040 1.466 1.635 2.197 2.057 0.166 0.094 0.723 0.358 1.236 0.588 0.513 0.226 1.104 0.501 1.311 0.607 1.5 0.768 2.841 2.11 3.794 3.791 0.49 0.855 0.735 1.571 0.912 2.649 0.056 0.362 0.076 0.644 0.076 1.225 0 1.213 0.072 4.36 0.117 4.955 0.064 0.912 0.286 1.96 0.633 3.015 0.358 1.074 0.618 1.594 0.772 1.534 0.064-0.027 0.068-0.279 0.041-5.464-0.023-5.416-0.041-6.18-0.154-6.775-0.113-0.607-0.407-1.402-0.727-1.99-0.166-0.298-0.309-0.595-0.324-0.667-0.045-0.256 0.068-0.49 0.459-0.92 0.101-0.113 0.241-0.29 0.309-0.388 0.173-0.256 0.576-1.116 0.698-1.484 0.113-0.343 0.249-0.878 0.253-1.002 0-0.045 0.041 0.094 0.090 0.313 0.113 0.498 0.275 0.965 0.513 1.462 0.256 0.543 0.418 0.803 0.72 1.134 0.332 0.373 0.463 0.626 0.43 0.844-0.015 0.094-0.147 0.381-0.324 0.701-0.505 0.92-0.761 1.82-0.825 2.886-0.023 0.332-0.049 3.015-0.060 5.966-0.023 4.933-0.019 5.362 0.037 5.381 0.109 0.041 0.237-0.132 0.426-0.584 0.358-0.84 0.716-2.077 0.871-2.985 0.121-0.694 0.15-1.247 0.192-3.557 0.068-3.61 0.053-3.362 0.185-3.983 0.249-1.187 0.595-1.978 1.353-3.082 0.727-1.059 1.684-2.001 2.668-2.623 0.445-0.278 0.863-0.486 1.964-0.976 0.991-0.437 1.432-0.678 1.861-1.017 0.395-0.313 1.006-0.946 1.466-1.519 0.214-0.272 0.395-0.49 0.403-0.482 0.023 0.023-0.173 0.735-0.271 0.988-0.399 1.002-1.104 2.054-1.869 2.789-0.588 0.562-1.183 0.995-2.19 1.598-1.673 0.999-2.623 1.978-3.407 3.512-0.449 0.885-0.758 1.79-0.923 2.724-0.079 0.437-0.090 0.603-0.090 1.564 0 1.066 0.027 1.391 0.154 2.054 0.083 0.407 0.154 0.584 0.245 0.584 0.109 0 0.136-0.105 0.222-0.829 0.2-1.7 0.418-2.551 0.908-3.561 0.498-1.025 1.387-2.303 2.114-3.034 0.437-0.437 0.807-0.731 1.594-1.27 0.569-0.389 1.104-0.788 2.37-1.771l0.377-0.29-0.309 0.591c-0.169 0.328-0.385 0.716-0.482 0.867-0.222 0.346-0.652 0.788-1.297 1.326-0.566 0.475-2.133 2.042-2.668 2.664-0.889 1.048-1.421 1.911-1.349 2.197 0.030 0.121 0.14 0.121 0.298 0.004 0.068-0.049 0.453-0.298 0.855-0.55 1.213-0.761 1.797-1.213 2.721-2.103 2.235-2.159 3.858-5.099 4.436-8.019 0.328-1.662 0.317-3.629-0.034-5.366-0.26-1.297-0.743-2.589-1.281-3.425-0.158-0.245-0.215-0.305-0.279-0.298-0.098 0.015-0.094 0.068 0.015 0.784 0.117 0.731 0.144 2.042 0.060 2.66-0.215 1.564-0.893 2.728-2.182 3.738-0.769 0.603-1.964 1.236-3.531 1.873-1.021 0.414-1.36 0.576-1.725 0.821-0.388 0.26-0.697 0.535-0.991 0.885-0.373 0.441-0.569 0.648-0.618 0.648-0.083 0-0.354-0.245-0.527-0.471-0.354-0.471-0.652-1.165-0.818-1.907-0.113-0.509-0.121-1.455-0.015-1.843 0.222-0.825 0.576-1.394 1.161-1.861 0.516-0.414 1.187-0.739 2.781-1.349 1.643-0.633 2.513-1.040 3.109-1.455 0.516-0.362 1.251-1.157 1.684-1.82 0.584-0.897 0.957-2.122 0.859-2.815-0.045-0.328-0.124-0.486-0.29-0.584-0.147-0.087-0.482-0.124-0.622-0.068-0.166 0.064-0.208 0.177-0.257 0.682-0.023 0.26-0.068 0.58-0.101 0.716-0.317 1.297-1.616 2.668-3.139 3.308l-0.358 0.15-0.867 0.064c-0.475 0.034-1.458 0.076-2.186 0.094-1.677 0.045-1.956 0.079-2.404 0.305-0.395 0.2-0.607 0.445-0.765 0.878l-0.079 0.226-0.030-0.128c-0.045-0.214-0.245-0.554-0.418-0.712-0.177-0.166-0.516-0.35-0.758-0.414-0.324-0.087-0.746-0.121-2.046-0.154-1.579-0.041-2.917-0.132-3.162-0.214-0.294-0.098-0.836-0.377-1.18-0.603-1.040-0.69-1.85-1.684-2.133-2.612-0.090-0.29-0.105-0.377-0.158-0.923-0.023-0.23-0.056-0.459-0.079-0.516-0.072-0.173-0.392-0.23-0.69-0.121zM13.084 6.848c1.153 0.173 1.956 0.648 2.657 1.568 0.113 0.151 0.226 0.275 0.253 0.275s0.136-0.113 0.237-0.256c0.226-0.298 0.622-0.701 0.908-0.912 0.63-0.463 1.503-0.716 2.483-0.716 0.659 0 0.659 0.023 0.023 0.241-0.309 0.109-0.697 0.268-0.863 0.354-0.682 0.358-1.349 0.976-1.835 1.7-0.445 0.667-0.678 1.187-0.856 1.903l-0.105 0.414-0.045-0.245c-0.23-1.213-1.108-2.615-2.106-3.369-0.433-0.324-0.931-0.576-1.545-0.776-0.389-0.128-0.482-0.169-0.414-0.189 0.143-0.041 0.92-0.037 1.21 0.008z"></path>
<path d="M9.165 8.784c-0.185 0.079-0.211 0.169-0.188 0.599 0.011 0.211 0.030 0.407 0.041 0.441 0.049 0.121 0.226 0.173 0.636 0.2 0.459 0.030 0.656 0.098 1.074 0.377 0.626 0.418 1.187 1.138 1.598 2.038 0.158 0.346 0.253 0.607 0.433 1.206 0.056 0.192 0.083 0.226 0.166 0.237 0.121 0.015 0.196-0.072 0.275-0.305 0.124-0.366 0.181-0.885 0.162-1.439-0.015-0.467-0.030-0.569-0.136-0.885-0.166-0.494-0.411-0.889-0.795-1.281-0.463-0.471-1.074-0.852-1.696-1.056-0.546-0.177-1.319-0.241-1.571-0.132z"></path>
<path d="M21.947 8.754c-0.924 0.121-1.99 0.701-2.567 1.398-0.58 0.701-0.799 1.375-0.758 2.336 0.034 0.814 0.2 1.371 0.411 1.394 0.121 0.015 0.105 0.053 0.343-0.694 0.305-0.946 0.731-1.692 1.297-2.28 0.58-0.603 1.036-0.844 1.655-0.881 0.422-0.027 0.566-0.068 0.626-0.185 0.064-0.117 0.087-0.821 0.031-0.923-0.072-0.136-0.264-0.192-0.611-0.188-0.173 0.004-0.362 0.015-0.426 0.023z"></path>
<path d="M15.496 15.473c-0.275 0.516-0.501 0.965-0.501 0.991 0 0.045 0.411 1.221 0.836 2.396l0.154 0.43 0.218-0.618c0.124-0.339 0.35-0.972 0.513-1.406 0.158-0.43 0.286-0.803 0.286-0.829 0-0.041-0.938-1.828-0.984-1.877-0.015-0.015-0.253 0.395-0.524 0.912z"></path>
</symbol>
<symbol id="icon-music" viewBox="0 0 20 20">
<path d="M20 2.5v-2.5l-14 2v12.17c-0.297-0.108-0.639-0.17-0.996-0.17-0.002 0-0.003 0-0.005 0h-2c-1.657 0-3 1.343-3 3s1.343 3 3 3v0h2c1.657 0 3-1.343 3-3v0-11.29l10-1.41v7.88c-0.297-0.108-0.639-0.17-0.996-0.17-0.002 0-0.003 0-0.005 0h-2c-1.657 0-3 1.343-3 3s1.343 3 3 3h2c1.657 0 3-1.343 3-3v0-12.51z"></path>
</symbol>
<symbol id="icon-group" viewBox="0 0 20 20">
<path d="M7 8c-2.209 0-4-1.791-4-4s1.791-4 4-4v0c2.209 0 4 1.791 4 4s-1.791 4-4 4v0zM7 9c2.15 0 4.2 0.4 6.1 1.090l-1.1 5.91h-1.25l-0.75 4h-6l-0.75-4h-1.25l-1.1-5.91c1.813-0.684 3.909-1.083 6.097-1.090h0.003zM15.31 9.17c1.32 0.18 2.59 0.48 3.8 0.92l-1.11 5.91h-1.25l-0.75 4h-3.96l0.37-2h1.25l1.65-8.83zM13 0c0.010-0 0.022-0 0.034-0 2.209 0 4 1.791 4 4s-1.791 4-4 4c-0.49 0-0.958-0.088-1.392-0.249l0.028 0.009c0.832-1.017 1.336-2.329 1.336-3.76s-0.504-2.743-1.344-3.771l0.008 0.011c0.43-0.14 0.86-0.24 1.33-0.24z"></path>
</symbol>
<symbol id="icon-add" viewBox="0 0 20 20">
<path d="M2 6h-2v2h2v2h2v-2h2v-2h-2v-2h-2v2zM9 6c0-1.657 1.343-3 3-3s3 1.343 3 3v0 2c0 1.657-1.343 3-3 3s-3-1.343-3-3v0-2zM20 15.14c-2.287-1.345-5.038-2.14-7.975-2.14-0.009 0-0.018 0-0.026 0h0.001c-2.91 0-5.65 0.78-8 2.14v2.86h16v-2.86z"></path>
</symbol>
<symbol id="icon-judge-flow-tab" viewBox="0 0 20 32">
<path d="M11.485 16.74c0.076 0.133 0.074 0.27 0.047 0.411-0.002 0.009-0.006 0.017-0.008 0.026-0.060 0.215-0.062 0.22-0.31 0.325 0.020 0.133 0.014 0.265-0.019 0.395-0.050 0.194-0.122 0.385-0.232 0.558-0.030 0.046-0.067 0.087-0.11 0.124-0.023 0.027-0.047 0.052-0.074 0.076-0.052 0.045-0.11 0.084-0.173 0.116-0.041 0.030-0.086 0.055-0.134 0.074 0.014 0.208 0.054 0.412 0.118 0.613 0.026 0.082 0.063 0.162 0.157 0.209 0.392-0.227 0.663-0.545 0.825-0.923 0.161-0.376 0.203-0.773 0.032-1.16-0.084-0.191-0.001-0.358 0.029-0.558 0.15 0.2 0.24 0.4 0.315 0.598 0.156 0.413 0.271 0.837 0.287 1.278 0.014 0.388-0.005 0.771-0.107 1.15-0.007 0.034-0.023 0.064-0.046 0.091s-0.052 0.048-0.086 0.063c-0.367 0.178-0.6 0.465-0.777 0.793-0.128 0.237-0.179 0.493-0.206 0.751-0.020 0.188 0.003 0.372 0.067 0.552 0.011 0.030 0.014 0.063 0.067 0.079 0.146-0.065 0.294-0.144 0.425-0.245 0.298-0.23 0.523-0.511 0.649-0.844 0.128-0.337 0.175-0.682 0-1.024-0.015-0.029-0.025-0.059-0.028-0.091s-0.001-0.063 0.008-0.094c0.071-0.257 0.101-0.518 0.11-0.783 0.003-0.099-0.006-0.204 0.037-0.312 0.050 0.054 0.070 0.099 0.060 0.16-0.014 0.081-0.006 0.163 0.009 0.245 0.115 0.59 0.428 1.073 0.963 1.435 0.069 0.047 0.143 0.099 0.246 0.099 0.037-0.141 0.035-0.276 0.026-0.412-0.019-0.269-0.124-0.514-0.252-0.753-0.172-0.322-0.439-0.551-0.817-0.669-0.043-0.014-0.087-0.026-0.114-0.063-0.077-0.102-0.149-0.21-0.164-0.334-0.036-0.299-0.119-0.59-0.195-0.882-0.007-0.026-0.021-0.051-0.002-0.084 0.197 0.209 0.387 0.422 0.609 0.605 0.422 0.346 0.842 0.694 1.318 0.981 0.074 0.044 0.141 0.096 0.201 0.155s0.112 0.123 0.155 0.192c0.090 0.144 0.15 0.297 0.208 0.452 0.092 0.248 0.082 0.49-0.021 0.733-0.032 0.077-0.079 0.116-0.174 0.124-0.199 0.019-0.381 0.088-0.555 0.174-0.338 0.169-0.601 0.411-0.809 0.702-0.171 0.241-0.225 0.503-0.159 0.784 0.007 0.031 0.021 0.061 0.053 0.079 0.010 0.002 0.020 0.004 0.030 0.004 0.020-0 0.040-0.002 0.060-0.006 0.049-0.010 0.098-0.021 0.147-0.034s0.096-0.028 0.143-0.044c0.047-0.017 0.094-0.035 0.139-0.054s0.090-0.041 0.134-0.064c0.044-0.023 0.086-0.047 0.128-0.073s0.082-0.053 0.121-0.082c0.039-0.029 0.077-0.059 0.114-0.090s0.072-0.064 0.106-0.098c0.034-0.034 0.066-0.069 0.097-0.105s0.060-0.073 0.088-0.111c0.028-0.038 0.054-0.077 0.078-0.117s0.047-0.081 0.067-0.122 0.040-0.084 0.056-0.127c0.017-0.043 0.032-0.086 0.045-0.13s0.025-0.088 0.034-0.133c0.009-0.045 0.017-0.090 0.022-0.135 0.021-0.169 0.126-0.3 0.172-0.474 0.060 0.085 0.077 0.161 0.090 0.236 0.045 0.274 0.090 0.547 0.075 0.826-0.005 0.092-0.031 0.158-0.108 0.224-0.234 0.202-0.442 0.418-0.543 0.71-0.124 0.357-0.168 0.711-0.061 1.073 0.041 0.139 0.086 0.281 0.229 0.367 0.109-0.043 0.179-0.126 0.28-0.173 0.214 0.393 0.415 0.785 0.945 0.909 0.094-0.201 0.12-0.402 0.107-0.608-0.026-0.408-0.188-0.771-0.458-1.095-0.040-0.048-0.055-0.091-0.046-0.149 0.053-0.337 0.023-0.661-0.185-0.96-0.032-0.044-0.056-0.092-0.071-0.143s-0.022-0.103-0.019-0.155c0.009-0.145-0.007-0.29-0.017-0.435-0.008-0.12-0.054-0.237-0.038-0.38 0.037 0.053 0.061 0.087 0.085 0.121 0.067 0.091 0.123 0.182 0.137 0.297 0.015 0.126 0.051 0.253 0.12 0.365 0.263 0.43 0.624 0.761 1.168 0.893 0.065 0.016 0.12 0.073 0.204 0.044 0.033-0.073 0.021-0.148 0.010-0.226-0.036-0.264-0.194-0.478-0.363-0.683-0.255-0.308-0.569-0.545-1.020-0.578-0.067-0.005-0.11-0.029-0.147-0.080-0.108-0.149-0.197-0.307-0.282-0.468-0.040-0.075-0.061-0.154-0.065-0.237-0.008-0.165-0.063-0.322-0.127-0.475-0.053-0.128-0.122-0.251-0.193-0.395 0.261 0.126 0.498 0.245 0.74 0.356 0.092 0.042 0.146 0.098 0.184 0.184 0.274 0.628 0.728 1.107 1.429 1.377 0.153 0.059 0.311 0.102 0.49 0.092-0.014-0.388-0.206-0.709-0.439-1.043 0.219 0.069 0.409 0.114 0.586 0.195 0.078 0.034 0.142 0.083 0.189 0.148 0.114 0.151 0.249 0.286 0.404 0.405 0.336 0.263 0.728 0.442 1.127 0.612 0.228 0.097 0.47 0.138 0.718 0.165 0.059 0.006 0.119 0.012 0.186-0.012-0.205-0.517-0.611-0.865-1.118-1.145 0.31-0.080 0.573-0.216 0.813-0.417-0.077-0.062-0.154-0.088-0.222-0.126-0.376-0.207-0.778-0.303-1.219-0.23-0.317 0.053-0.626 0.123-0.833 0.375-0.073 0.089-0.162 0.109-0.278 0.062-0.078-0.031-0.164-0.046-0.245-0.071-0.135-0.042-0.256-0.107-0.362-0.193-0.332-0.27-0.714-0.427-1.174-0.388-0.041 0.004-0.076 0.004-0.116-0.014-0.267-0.121-0.533-0.242-0.787-0.385-0.109-0.062-0.227-0.113-0.345-0.206 0.175-0.007 0.32-0.029 0.469 0.025 0.125 0.045 0.257 0.084 0.395 0.095 0.595 0.047 1.092-0.154 1.515-0.51 0.067-0.056 0.125-0.119 0.174-0.189s0.088-0.143 0.117-0.221c-0.088-0.061-0.185-0.103-0.293-0.127-0.198-0.045-0.398-0.064-0.602-0.057-0.291 0.011-0.568 0.081-0.833 0.188-0.354 0.143-0.648 0.336-0.74 0.699-0.227 0.038-0.349 0.016-0.52-0.098-0.11-0.073-0.223-0.143-0.325-0.224-0.413-0.328-0.844-0.64-1.195-1.025-0.125-0.137-0.258-0.271-0.361-0.42-0.092-0.134-0.151-0.286-0.232-0.428-0.134-0.235-0.261-0.473-0.426-0.692-0.015-0.021-0.039-0.041-0.034-0.070-0.048-0.013-0.094-0.031-0.137-0.054 0.127 0.185 0.252 0.37 0.362 0.563z"></path>
<path d="M14.703 14.775c-0.091 0.067-0.176 0.115-0.257 0.177-0.045 0.035-0.089 0.071-0.13 0.11-0.029 0.025-0.054 0.054-0.075 0.085-0.009 0.012-0.019 0.024-0.030 0.034-0.024 0.037-0.047 0.075-0.070 0.113-0.117 0.199-0.17 0.419-0.167 0.645 0.001 0.059-0.005 0.105-0.043 0.151-0.021 0.025-0.042 0.055-0.048 0.085-0.018 0.096-0.093 0.127-0.185 0.153-0.429 0.124-0.865 0.142-1.306 0.077-0.23-0.034-0.461-0.065-0.685-0.118-0.070-0.017-0.14-0.035-0.207-0.056-0.027 0.016-0.057 0.024-0.090 0.023-0.007 0-0.015-0.001-0.022-0.001 0.155 0.061 0.313 0.111 0.484 0.125 0.112 0.009 0.223 0.030 0.32 0.079 0.102 0.052 0.223 0.098 0.234 0.227 0.024 0.309 0.127 0.588 0.297 0.862 0.248 0.399 0.614 0.655 1.069 0.828 0.045 0.017 0.092 0.042 0.148 0.015 0.051-0.161 0.049-0.327 0.035-0.505 0.408 0.108 0.808 0.19 1.228 0.172-0.006-0.056-0.025-0.109-0.057-0.158-0.108-0.18-0.265-0.32-0.431-0.455-0.38-0.307-0.811-0.508-1.331-0.528-0.082-0.004-0.158-0.027-0.226-0.069-0.175-0.103-0.366-0.176-0.57-0.217-0.099-0.020-0.163-0.075-0.224-0.16 0.162 0.009 0.306 0.032 0.453 0.036 0.344 0.009 0.674-0.057 1.002-0.134 0.064-0.015 0.114-0.016 0.172 0.014 0.168 0.087 0.353 0.137 0.541 0.174 0.263 0.051 0.53 0.037 0.778-0.049 0.399-0.139 0.699-0.395 0.942-0.707 0.025-0.033 0.056-0.066 0.054-0.11-0.094-0.103-0.119-0.118-0.215-0.165-0.203-0.101-0.419-0.126-0.646-0.106-0.112 0.010-0.224 0.012-0.342 0.018 0.093-0.332 0.133-0.652 0.011-0.973-0.046 0.006-0.089 0.018-0.131 0.036-0.078 0.103-0.171 0.194-0.278 0.273z"></path>
<path d="M9.779 16.671c0.067-0.078 0.139-0.152 0.216-0.222 0.050-0.045 0.102-0.089 0.156-0.13-0.044-0.004-0.086-0.011-0.128-0.022-0.032-0.005-0.064-0.011-0.096-0.017-0.226 0.216-0.442 0.44-0.68 0.645-0.131 0.113-0.256 0.235-0.353 0.376-0.036 0.051-0.078 0.103-0.009 0.174 0.138-0.020 0.237-0.106 0.34-0.181 0.125-0.092 0.248-0.187 0.368-0.283 0.018-0.127 0.1-0.239 0.188-0.338z"></path>
<path d="M9.36 16.079l-0.023-0.011c-0.165 0.146-0.338 0.283-0.508 0.424-0.324 0.27-0.634 0.553-0.935 0.843-0.057 0.055-0.124 0.107-0.067 0.203 0.136 0.007 0.238-0.062 0.341-0.131 0.446-0.3 0.858-0.636 1.245-0.993 0.079-0.073 0.165-0.141 0.251-0.21-0.104-0.037-0.205-0.079-0.303-0.126z"></path>
<path d="M6.456 16.556c-0.188 0.114-0.357 0.253-0.532 0.385-0.030 0.021-0.055 0.047-0.074 0.077 0.062 0.025 0.117 0.060 0.165 0.104 0.122-0.038 0.241-0.078 0.349-0.147 0.138-0.089 0.279-0.174 0.421-0.259-0.096-0.053-0.187-0.113-0.272-0.18l-0.011-0.009c-0.015 0.010-0.031 0.019-0.046 0.029z"></path>
<path d="M7.601 15.791c0.049 0.097 0.091 0.198 0.13 0.298l0.011 0.027c0.269-0.183 0.525-0.381 0.766-0.593-0.066-0.063-0.131-0.127-0.196-0.19-0.113 0.055-0.217 0.106-0.313 0.173-0.133 0.095-0.266 0.19-0.398 0.284z"></path>
<path d="M7.951 16.653c0.132-0.080 0.263-0.161 0.392-0.245 0.239-0.156 0.478-0.313 0.692-0.494-0.108-0.060-0.21-0.126-0.307-0.199-0.009-0.007-0.018-0.015-0.027-0.022-0.31 0.177-0.61 0.368-0.899 0.572 0.052 0.129 0.104 0.257 0.15 0.388z"></path>
<path d="M7.019 16.827c-0.083 0.065-0.162 0.133-0.238 0.206-0.071 0.069-0.161 0.127-0.127 0.238 0.086 0.031 0.159 0.010 0.226-0.024 0.181-0.092 0.368-0.172 0.543-0.273-0.141-0.034-0.275-0.083-0.403-0.147z"></path>
<path d="M6.234 16.303l-0.012-0.011c-0.061-0.052-0.115-0.11-0.164-0.171-0.017-0.015-0.033-0.030-0.049-0.046-0.215 0.125-0.426 0.256-0.617 0.412-0.080 0.065-0.151 0.131-0.15 0.243 0.115 0.041 0.2-0.014 0.282-0.056 0.239-0.121 0.475-0.245 0.709-0.372z"></path>
<path d="M5.529 15.385c-0.038-0.067-0.082-0.131-0.132-0.193-0.011-0.014-0.019-0.029-0.023-0.045-0.265 0.159-0.546 0.295-0.806 0.46-0.18 0.114-0.345 0.247-0.539 0.345-0.088 0.045-0.131 0.124-0.127 0.229 0.179 0.023 0.303-0.067 0.429-0.131 0.408-0.209 0.814-0.421 1.198-0.664z"></path>
<path d="M3.578 12.35c0.050 0.594 0.151 1.178 0.454 1.733-0.195 0.015-0.342-0.052-0.496-0.115-0.020-0.167-0.050-0.331-0.131-0.477s-0.138-0.304-0.213-0.454c-0.081-0.162-0.17-0.321-0.257-0.48-0.040-0.074-0.087-0.143-0.19-0.158-0.099 0.236 0.093 0.811 0.494 1.487-0.203-0.015-0.271-0.032-0.426-0.11 0.015-0.267-0.153-0.482-0.284-0.701-0.285-0.478-0.33-0.511-0.533-0.544-0.030 0.229 0.083 0.425 0.172 0.624s0.232 0.376 0.366 0.581c-0.115-0.017-0.197-0.019-0.263-0.1s-0.17-0.135-0.275-0.175c-0.49-0.184-1.015-0.238-1.531-0.325-0.048-0.008-0.109-0.018-0.129 0.048 0.030 0.064 0.098 0.085 0.156 0.113 0.392 0.19 0.824 0.281 1.242 0.408 0.066 0.021 0.133 0.026 0.202 0.016 0.185-0.035 0.333 0.051 0.498 0.093-0.026 0.055-0.071 0.042-0.105 0.049-0.319 0.066-0.645 0.104-0.953 0.21-0.088 0.030-0.188 0.053-0.211 0.149 0.010 0.014 0.024 0.024 0.040 0.030s0.034 0.008 0.052 0.006c0.22-0.012 0.442-0.016 0.66-0.043 0.27-0.034 0.549-0.057 0.761-0.244 0.012-0.011 0.025-0.021 0.040-0.029s0.031-0.014 0.047-0.018 0.034-0.006 0.051-0.006c0.017 0 0.034 0.002 0.051 0.006 0.109 0.027 0.224 0.037 0.325 0.093-0.035 0.061-0.098 0.071-0.152 0.087-0.405 0.124-0.778 0.313-1.174 0.456-0.084 0.030-0.182 0.064-0.208 0.166 0.408 0.068 1.399-0.267 1.875-0.63 0.163 0.026 0.328 0.060 0.501 0.144-0.262 0.1-0.453 0.259-0.665 0.391-0.294 0.182-0.581 0.373-0.896 0.527-0.094 0.046-0.201 0.099-0.214 0.217 0.139 0.037 0.143 0.044 0.241 0.005 0.153-0.060 0.305-0.124 0.451-0.198 0.461-0.229 0.897-0.491 1.27-0.829 0.039-0.036 0.083-0.072 0.138-0.053 0.108 0.038 0.235 0.037 0.356 0.127-0.138 0.047-0.238 0.108-0.335 0.171-0.481 0.312-0.992 0.583-1.495 0.865-0.076 0.043-0.152 0.088-0.175 0.176 0.151 0.030 0.236 0.021 0.433-0.070 0.292-0.134 0.588-0.261 0.866-0.415 0.345-0.191 0.724-0.352 0.938-0.706 0.174 0.052 0.367 0.056 0.567 0.161-0.228 0.042-0.382 0.148-0.543 0.247-0.426 0.263-0.879 0.492-1.271 0.799-0.122 0.096-0.263 0.182-0.272 0.366 0.174-0.004 0.302-0.078 0.431-0.142 0.313-0.156 0.619-0.323 0.901-0.521 0.315-0.221 0.69-0.384 0.871-0.737 0.145 0.056 0.3 0.053 0.488 0.149-0.196 0.015-0.321 0.092-0.437 0.174 0.159-0.001 0.318 0.033 0.476 0.056 0.064-0.057 0.114-0.122 0.15-0.196 0.148 0.033 0.289 0.043 0.442 0.122-0.106 0.037-0.19 0.068-0.266 0.107 0.124 0.013 0.245 0.037 0.363 0.072 0.009-0.014 0.018-0.029 0.027-0.044 0.024-0.041 0.040-0.091 0.113-0.106 0.211 0.055 0.444 0.074 0.701 0.168-0.159 0.072-0.261 0.142-0.369 0.204-0.014 0.008-0.029 0.017-0.044 0.025 0.071 0.067 0.135 0.139 0.19 0.217l0.010 0.014c0.169-0.111 0.313-0.24 0.383-0.429 0.099 0.001 0.197 0.012 0.293 0.034-0.047-0.042-0.093-0.085-0.137-0.129-0.048-0.012-0.096-0.027-0.143-0.043 0.008-0.027 0.014-0.054 0.019-0.081-0.034-0.031-0.072-0.057-0.114-0.079-0.083-0.041-0.11-0.143-0.063-0.215 0.009-0.013 0.020-0.025 0.033-0.036s0.027-0.019 0.043-0.026c0.016-0.007 0.032-0.011 0.049-0.013s0.034-0.002 0.051 0.001c-0.009-0.064-0.022-0.127-0.034-0.191-0.064-0.316-0.136-0.632-0.205-0.947-0.046-0.209-0.126-0.409-0.207-0.608-0.032-0.079-0.063-0.166-0.169-0.2-0.095 0.181-0.068 0.684 0.034 1.181 0.079 0.386 0.169 0.77 0.308 1.149-0.207-0.002-0.371-0.039-0.567-0.121 0.043-0.118 0.061-0.239 0.052-0.363-0.023-0.39-0.072-0.777-0.148-1.161-0.030-0.148-0.076-0.293-0.156-0.427-0.032-0.053-0.063-0.105-0.159-0.122-0.067 0.354-0.003 0.692 0.005 1.031 0.008 0.35 0.039 0.692 0.263 1.035-0.163-0.035-0.285-0.035-0.383-0.124 0.043-0.195-0.018-0.378-0.067-0.565-0.115-0.441-0.315-0.857-0.471-1.285-0.040-0.109-0.115-0.208-0.179-0.309-0.023-0.037-0.060-0.063-0.14-0.042-0.022 0.371 0.115 0.731 0.168 1.098 0.054 0.376 0.226 0.725 0.436 1.064-0.162 0.011-0.275-0.062-0.403-0.080-0.073-0.010-0.101-0.059-0.1-0.119 0.005-0.189-0.068-0.362-0.131-0.537-0.145-0.405-0.307-0.802-0.568-1.161-0.039-0.054-0.059-0.13-0.173-0.127-0.039 0.219 0.071 0.414 0.119 0.615 0.051 0.214 0.134 0.421 0.2 0.632 0.064 0.203 0.179 0.385 0.316 0.587-0.18-0.054-0.346-0.048-0.487-0.138 0.004-0.089-0.005-0.177-0.026-0.264-0.143-0.544-0.423-1.040-0.666-1.549-0.039-0.082-0.083-0.176-0.238-0.198 0.034 0.726 0.385 1.347 0.716 1.994-0.209-0.052-0.389-0.078-0.565-0.164 0.041-0.203-0.020-0.392-0.083-0.583-0.046-0.137-0.073-0.279-0.098-0.421-0.026-0.146-0.066-0.288-0.121-0.427s-0.123-0.273-0.205-0.401c-0.032-0.049-0.057-0.113-0.138-0.118-0.065 0.042-0.047 0.102-0.043 0.152z"></path>
<path d="M5.835 15.856c-0.042-0.046-0.078-0.096-0.107-0.149-0.009-0.016-0.015-0.032-0.018-0.049-0.015-0.020-0.030-0.039-0.045-0.059-0.111 0.083-0.223 0.166-0.337 0.245-0.193 0.134-0.369 0.286-0.546 0.436-0.086 0.073-0.171 0.157-0.119 0.295 0.145 0.015 0.242-0.073 0.35-0.126 0.311-0.153 0.595-0.342 0.876-0.534-0.022-0.016-0.040-0.036-0.054-0.058z"></path>
<path d="M8.691 14.493c-0.080-0.257-0.171-0.511-0.272-0.762-0.081-0.199-0.145-0.405-0.262-0.591-0.036-0.057-0.062-0.128-0.187-0.101 0.020 0.363 0.097 0.718 0.144 1.076 0.022 0.171 0.085 0.328 0.164 0.482 0.034 0.003 0.067 0.007 0.102 0.012 0.134 0.021 0.267 0.049 0.38 0.116-0.020-0.077-0.044-0.155-0.068-0.232z"></path>
<path d="M9.462 13.71c0.11 0.556 0.236 1.108 0.481 1.638 0.011 0.009 0.022 0.018 0.033 0.028 0.101 0.061 0.19 0.133 0.267 0.217 0.133 0.021 0.26 0.032 0.385 0.089l-0.153 0.122c0.034 0.029 0.069 0.059 0.103 0.087 0.044 0.015 0.085 0.035 0.123 0.059 0.028-0.046 0.052-0.094 0.072-0.144 0.004-0.009 0.008-0.018 0.012-0.027-0.134-0.384-0.257-0.772-0.351-1.165-0.060-0.244-0.106-0.489-0.137-0.737-0.004 0.177 0.021 0.405 0.076 0.671 0.070 0.338 0.107 0.685 0.325 1.010-0.196-0.017-0.344-0.041-0.501-0.109 0.015-0.147 0.023-0.296-0.027-0.442-0.055-0.157-0.095-0.317-0.141-0.476-0.088-0.3-0.237-0.577-0.395-0.851-0.029-0.049-0.060-0.097-0.136-0.084-0.043 0.031-0.043 0.073-0.035 0.114z"></path>
<path d="M8.818 14.185c0.072 0.207 0.137 0.417 0.228 0.621 0.059 0.027 0.115 0.059 0.171 0.089 0.075 0.041 0.147 0.086 0.219 0.131 0.006 0.002 0.012 0.004 0.017 0.006 0.026 0.011 0.050 0.024 0.074 0.038-0.003-0.007-0.005-0.014-0.009-0.022-0.172-0.389-0.27-0.799-0.424-1.193-0.094-0.239-0.193-0.477-0.319-0.703-0.036-0.064-0.061-0.145-0.169-0.144-0.053 0.169 0.021 0.629 0.211 1.177z"></path>
<path d="M7.874 14.557c-0.099 0.016-0.221 0.022-0.256 0.114-0.039 0.102 0.059 0.175 0.14 0.237 0.243 0.186 0.46 0.395 0.679 0.603 0.321 0.304 0.688 0.546 1.129 0.694 0.154 0.052 0.309 0.093 0.477 0.108-0.032 0.077-0.108 0.097-0.134 0.148-0.079 0.154-0.237 0.189-0.395 0.228-0.069 0.017-0.136 0.036-0.203 0.057-0.269 0.081-0.535 0.168-0.808 0.236-0.077 0.019-0.13 0.008-0.197-0.027-0.221-0.117-0.307-0.319-0.399-0.512-0.116-0.243-0.171-0.506-0.318-0.74-0.085-0.134-0.173-0.269-0.297-0.373-0.231-0.193-0.523-0.287-0.829-0.334-0.238-0.036-0.48-0.054-0.72-0.080-0.082-0.009-0.165-0.012-0.247 0.005-0.175 0.037-0.228 0.124-0.149 0.268 0.258 0.473 0.541 0.927 0.99 1.286 0.384 0.307 0.814 0.503 1.314 0.585 0.072 0.012 0.149 0.010 0.244 0.055-0.515 0.111-1.010 0.169-1.518 0.241-0.074-0.107-0.183-0.187-0.293-0.267-0.476-0.344-1.023-0.436-1.614-0.379-0.107 0.012-0.206 0.043-0.298 0.094-0.064 0.034-0.105 0.084-0.135 0.143s-0.026 0.109 0.035 0.155c0.066 0.053 0.129 0.109 0.188 0.168 0.105 0.099 0.22 0.191 0.275 0.323-0.014 0.009-0.023 0.021-0.032 0.021-0.206-0.006-0.413-0.013-0.619-0.020-0.067-0.003-0.106-0.041-0.133-0.091-0.052-0.095-0.1-0.193-0.156-0.286-0.212-0.354-0.395-0.724-0.742-1-0.58-0.462-1.242-0.678-2.021-0.575-0.077 0.008-0.149 0.031-0.215 0.068-0.082 0.048-0.11 0.129-0.067 0.205 0.014 0.023 0.037 0.041 0.054 0.063 0.132 0.178 0.329 0.303 0.471 0.474 0.204 0.245 0.383 0.51 0.64 0.717 0.006 0.005 0.003 0.019 0.005 0.043-0.289 0.1-0.541 0.267-0.791 0.434-0.348 0.233-0.648 0.507-0.872 0.845-0.031 0.047-0.054 0.094-0.025 0.156 0.122 0.039 0.248 0.054 0.378 0.044 0.195-0.015 0.389-0.016 0.584-0.001 0.188 0.012 0.379 0.033 0.566 0.020 0.646-0.045 1.21-0.264 1.678-0.671 0.098-0.085 0.185-0.179 0.283-0.263 0.072-0.062 0.149-0.126 0.26-0.117 0.259 0.022 0.517 0.040 0.777 0.037 0.049 0 0.099 0.005 0.12 0.051 0.065 0.142 0.196 0.238 0.297 0.355 0.338 0.39 0.786 0.581 1.335 0.577 0.177 0 0.354-0.013 0.529-0.040 0.043-0.007 0.087-0.022 0.141-0.002-0.066 0.117-0.109 0.229-0.224 0.309-0.068 0.047-0.114 0.121-0.17 0.182-0.083 0.089-0.166 0.177-0.238 0.253-0.073 0.012-0.112-0.015-0.154-0.032-0.144-0.060-0.286-0.127-0.44-0.164-0.353-0.083-0.69-0.031-1.018 0.102-0.356 0.144-0.679 0.343-1.024 0.505-0.188 0.088-0.376 0.178-0.563 0.27-0.062 0.030-0.125 0.061-0.17 0.112-0.079 0.089-0.071 0.138 0.021 0.217 0.074 0.063 0.169 0.073 0.258 0.097 0.237 0.064 0.484 0.093 0.718 0.169 0.379 0.123 0.767 0.203 1.196 0.213-0.090 0.135-0.168 0.252-0.246 0.371-0.034 0.051-0.094 0.062-0.15 0.077-0.118 0.032-0.244 0.050-0.355 0.096-0.603 0.246-0.983 0.673-1.161 1.236-0.148 0.467-0.158 0.952-0.151 1.436 0.002 0.105 0.028 0.211 0.091 0.304 0.075 0.11 0.185 0.124 0.289 0.033 0.072-0.063 0.138-0.13 0.208-0.195 0.13-0.123 0.244-0.263 0.409-0.351 0.184-0.097 0.351-0.215 0.514-0.338 0.266-0.201 0.489-0.429 0.559-0.75 0.059-0.268 0.021-0.528-0.066-0.784-0.058-0.172-0.12-0.344-0.185-0.514-0.019-0.050-0.007-0.087 0.019-0.133 0.088-0.157 0.209-0.295 0.31-0.445 0.032-0.048 0.071-0.083 0.138-0.086 0.214-0.011 0.394-0.102 0.575-0.193 0.328-0.164 0.473-0.414 0.461-0.747-0.005-0.111-0.017-0.222-0.037-0.332-0.007-0.037-0.020-0.074 0.010-0.107 0.127-0.143 0.256-0.286 0.387-0.432 0.046 0.048 0.027 0.086 0.026 0.12-0.013 0.294 0.025 0.582 0.112 0.865 0.095 0.309 0.221 0.606 0.492 0.832 0.181 0.152 0.359 0.307 0.55 0.45 0.211 0.158 0.395 0.331 0.536 0.544 0.117 0.177 0.303 0.168 0.412-0.011 0.122-0.2 0.183-0.413 0.166-0.642-0.014-0.186-0.044-0.369-0.108-0.547-0.094-0.263-0.212-0.519-0.373-0.754-0.185-0.27-0.35-0.555-0.623-0.768-0.107-0.083-0.214-0.165-0.334-0.235-0.168-0.097-0.33-0.203-0.419-0.371 0.007-0.017 0.016-0.033 0.026-0.049 0.085-0.103 0.203-0.177 0.298-0.272 0.487-0.48 1.030-0.902 1.62-1.277 0.151-0.096 0.327-0.132 0.501-0.183 0.001 0.023 0.004 0.035 0.001 0.044-0.007 0.020-0.015 0.040-0.026 0.059-0.102 0.171-0.142 0.353-0.16 0.548-0.038 0.417-0.074 0.836-0.225 1.237-0.040 0.105-0.096 0.206-0.13 0.313-0.054 0.169-0.008 0.226 0.184 0.243 0.202 0.018 0.402-0.010 0.595-0.058 0.498-0.124 0.932-0.334 1.184-0.766 0.134-0.23 0.22-0.47 0.17-0.734-0.053-0.282-0.102-0.565-0.161-0.846-0.039-0.185-0.011-0.352 0.099-0.507-0.027-0.009-0.052-0.019-0.077-0.031-0.017 0.037-0.045 0.070-0.065 0.103-0.077 0.124-0.083 0.252-0.057 0.386 0.056 0.292 0.116 0.584 0.171 0.877 0.027 0.143 0.018 0.284-0.028 0.423-0.153 0.488-0.526 0.776-1.029 0.957-0.211 0.077-0.432 0.104-0.655 0.125-0.078 0.008-0.154-0.002-0.226-0.030-0.051-0.077-0.009-0.15 0.024-0.212 0.219-0.411 0.259-0.856 0.312-1.299 0.007-0.058 0.014-0.116 0.017-0.174 0.024-0.443 0.269-0.782 0.632-1.061 0.194-0.149 0.429-0.215 0.724-0.227-0.367 0.159-0.522 0.409-0.579 0.727-0.045 0.258-0.036 0.518-0.051 0.777-0.021 0.367-0.198 0.646-0.548 0.838-0.034 0.019-0.077 0.033-0.077 0.086 0.036 0.029 0.061 0.018 0.087 0.003 0.189-0.106 0.335-0.252 0.465-0.41 0.074-0.090 0.087-0.208 0.111-0.316 0.028-0.124 0.030-0.251 0.034-0.379 0.008-0.27 0.022-0.541 0.12-0.799 0.091-0.242 0.291-0.406 0.526-0.449-0.031-0.023-0.058-0.048-0.082-0.076-0.024-0.026-0.044-0.055-0.062-0.084-0.044-0.002-0.084-0.013-0.122-0.034-0.162-0.092-0.292-0.218-0.413-0.345-0.38-0.399-0.854-0.683-1.378-0.899-0.346-0.142-0.71-0.234-1.1-0.169zM4.802 22.161c-0.014 0.157-0.090 0.297-0.173 0.431-0.169 0.272-0.386 0.507-0.662 0.696-0.203 0.139-0.397 0.286-0.484 0.514-0.013 0.034-0.043 0.066-0.013 0.112 0.051-0.012 0.064-0.056 0.079-0.091 0.072-0.17 0.208-0.294 0.364-0.402 0.23-0.159 0.445-0.33 0.615-0.545 0.233-0.292 0.396-0.602 0.371-0.972-0.003-0.042 0.007-0.081 0.028-0.118 0.026 0.058 0.056 0.115 0.078 0.174 0.112 0.297 0.157 0.595 0.054 0.906-0.065 0.197-0.194 0.347-0.354 0.485-0.184 0.158-0.384 0.298-0.6 0.42-0.23 0.131-0.387 0.324-0.571 0.494-0.055 0.051-0.096 0.14-0.189 0.122-0.091-0.017-0.101-0.111-0.126-0.179-0.051-0.139-0.025-0.285-0.021-0.427 0.010-0.303 0.041-0.603 0.095-0.902 0.088-0.506 0.369-0.912 0.811-1.229 0.158-0.114 0.437-0.203 0.671-0.227 0.042 0.245 0.050 0.49 0.026 0.737zM6.242 19.471c-0.272 0.397-0.641 0.64-1.169 0.669-0.231 0.012-0.459-0.010-0.689-0.018-0.183-0.006-0.365 0.005-0.548 0.009-0.114 0.002-0.209 0.056-0.321 0.094 0.054 0.022 0.095 0.014 0.135 0.008 0.328-0.049 0.657-0.041 0.987-0.022 0.217 0.012 0.433 0.015 0.652-0.021 0.344-0.055 0.614-0.206 0.824-0.452 0.052-0.062 0.107-0.121 0.176-0.198 0.065 0.267 0.086 0.51-0.034 0.746-0.066 0.13-0.198 0.212-0.328 0.282-0.375 0.203-0.782 0.243-1.211 0.181-0.415-0.060-0.803-0.209-1.212-0.287-0.104-0.020-0.206-0.044-0.309-0.069-0.074-0.018-0.148-0.040-0.181-0.116 0.018-0.091 0.104-0.121 0.181-0.157 0.303-0.143 0.61-0.278 0.909-0.428 0.185-0.093 0.364-0.198 0.557-0.277 0.124-0.050 0.25-0.094 0.377-0.136 0.314-0.103 0.617-0.051 0.912 0.062 0.096 0.037 0.189 0.084 0.29 0.13zM7.271 18.705c0.069 0.067 0.146 0.123 0.232 0.171 0.296 0.164 0.545 0.368 0.728 0.636 0.096 0.14 0.198 0.276 0.291 0.418 0.232 0.356 0.389 0.735 0.447 1.147 0.034 0.247-0.020 0.476-0.141 0.693-0.077 0.139-0.175 0.147-0.255 0.013-0.138-0.231-0.346-0.397-0.565-0.562-0.207-0.156-0.406-0.324-0.595-0.498-0.265-0.244-0.381-0.558-0.454-0.883-0.063-0.28-0.12-0.563-0.044-0.851 0.025-0.095 0.060-0.182 0.132-0.268 0.044 0.039 0.031 0.072 0.028 0.101-0.028 0.225 0.011 0.444 0.078 0.66 0.030 0.095 0.070 0.185 0.123 0.272s0.114 0.167 0.186 0.241c0.138 0.144 0.29 0.279 0.435 0.418 0.183 0.175 0.349 0.361 0.43 0.595 0.017 0.049 0.037 0.101 0.11 0.158-0.073-0.239-0.144-0.45-0.309-0.623-0.082-0.090-0.17-0.175-0.263-0.256-0.137-0.117-0.264-0.242-0.381-0.375-0.213-0.238-0.332-0.512-0.344-0.819-0.005-0.147-0.005-0.294 0.020-0.437 0.063-0.014 0.085 0.023 0.111 0.048zM7.29 16.903c-0.64-0.195-1.092-0.594-1.45-1.089-0.129-0.177-0.247-0.361-0.354-0.55-0.035-0.062-0.056-0.126-0.083-0.188 0.058-0.091 0.157-0.099 0.237-0.089 0.403 0.047 0.811 0.062 1.2 0.183 0.343 0.107 0.546 0.341 0.703 0.615 0.135 0.236 0.205 0.496 0.303 0.745 0.003 0.006-0.007 0.016-0.011 0.025-0.039 0.008-0.048-0.023-0.067-0.040-0.098-0.093-0.204-0.174-0.339-0.224-0.398-0.147-0.735-0.378-1.062-0.623-0.082-0.062-0.139-0.143-0.199-0.222-0.036-0.047-0.064-0.102-0.155-0.128 0.108 0.166 0.196 0.321 0.351 0.436 0.287 0.214 0.587 0.41 0.931 0.546 0.176 0.069 0.33 0.161 0.455 0.294s0.254 0.263 0.412 0.426c-0.327 0.007-0.602-0.033-0.872-0.115zM3.422 17.759c-0.62 0.623-1.349 0.931-2.259 0.863-0.258-0.019-0.517-0.036-0.777-0.008-0.080 0.008-0.165 0.013-0.251-0.028 0.021-0.145 0.125-0.25 0.22-0.351 0.166-0.177 0.35-0.337 0.552-0.48s0.417-0.268 0.646-0.373c0.026-0.012 0.055-0.020 0.081-0.032 0.124-0.059 0.22-0.047 0.349 0.029 0.199 0.118 0.396 0.249 0.643 0.313-0.031 0.075-0.089 0.095-0.139 0.12-0.222 0.114-0.46 0.191-0.712 0.232-0.198 0.031-0.396 0.056-0.595 0.082-0.147 0.021-0.288 0.057-0.425 0.108-0.059 0.021-0.112 0.049-0.129 0.131 0.092-0.020 0.147-0.069 0.215-0.095 0.2-0.077 0.412-0.089 0.622-0.114 0.382-0.045 0.76-0.107 1.093-0.293 0.144-0.080 0.276-0.132 0.453-0.098 0.121 0.023 0.254-0.002 0.412-0.006zM3.343 17.678c-0.309 0.052-0.598-0.012-0.876-0.128-0.406-0.169-0.722-0.434-0.991-0.75-0.229-0.268-0.435-0.553-0.721-0.78-0.060-0.047-0.136-0.104-0.112-0.186 0.029-0.1 0.141-0.108 0.231-0.118 0.449-0.053 0.88 0.007 1.293 0.178 0.3 0.124 0.548 0.309 0.78 0.515 0.069 0.061 0.113 0.136 0.165 0.206 0.209 0.282 0.388 0.58 0.519 0.919-0.271 0.002-0.506-0.068-0.725-0.184-0.206-0.11-0.364-0.267-0.514-0.431-0.176-0.192-0.334-0.397-0.523-0.58-0.065-0.061-0.135-0.118-0.21-0.169-0.055-0.039-0.113-0.077-0.19-0.072l-0.001 0.003c0.179 0.138 0.368 0.267 0.504 0.441 0.133 0.169 0.285 0.324 0.43 0.484 0.274 0.302 0.612 0.51 1.052 0.562 0.016 0.002 0.031 0.012 0.060 0.025-0.050 0.050-0.111 0.057-0.171 0.067zM6.527 18.362c-0.389-0.129-0.681-0.372-0.935-0.657-0.142-0.159-0.31-0.288-0.531-0.4 0.020 0.038 0.023 0.050 0.031 0.056 0.214 0.144 0.383 0.328 0.557 0.508 0.23 0.239 0.503 0.428 0.833 0.549 0.094 0.035 0.193 0.048 0.289 0.070 0.056 0.012 0.117 0.012 0.174 0.047-0.13 0.064-0.27 0.049-0.402 0.063-0.599 0.060-1.099-0.104-1.492-0.529-0.2-0.217-0.356-0.46-0.553-0.679-0.094-0.104-0.202-0.192-0.305-0.287-0.028-0.026-0.065-0.047-0.077-0.091 0.026-0.121 0.118-0.186 0.25-0.211 0.44-0.083 0.866-0.054 1.275 0.126 0.365 0.161 0.648 0.397 0.848 0.718 0.164 0.262 0.316 0.531 0.514 0.796-0.178 0.009-0.328-0.031-0.475-0.080zM8.582 17.195c-0.347 0.246-0.671 0.516-0.97 0.809-0.127 0.125-0.265 0.241-0.4 0.36-0.025 0.022-0.051 0.046-0.091 0.042-0.14-0.116-0.591-0.791-0.643-0.973 0.808-0.114 1.601-0.241 2.387-0.438-0.094 0.067-0.189 0.133-0.283 0.2zM8.218 14.617c0.412 0.035 0.784 0.18 1.136 0.373 0.407 0.222 0.765 0.493 1.066 0.826 0.066 0.073 0.148 0.135 0.23 0.208-0.11 0.075-0.221 0.074-0.32 0.047-0.247-0.070-0.49-0.152-0.68-0.323-0.096-0.087-0.197-0.168-0.291-0.255-0.13-0.12-0.298-0.184-0.469-0.248 0.040 0.026 0.078 0.054 0.119 0.079 0.192 0.116 0.36 0.258 0.519 0.406 0.18 0.169 0.386 0.291 0.637 0.355 0.034 0.010 0.066 0.022 0.098 0.036 0.013 0.008 0.026 0.017 0.037 0.026-0.066 0.075-0.145 0.109-0.254 0.098-0.142-0.015-0.279-0.045-0.413-0.089-0.454-0.147-0.833-0.395-1.152-0.717-0.187-0.191-0.387-0.371-0.6-0.538-0.070-0.054-0.148-0.105-0.17-0.209 0.155-0.108 0.335-0.089 0.506-0.075z"></path>
<path d="M1.332 16.030c0.055 0.008 0.109 0.016 0.138 0.066l-0.001 0.003c-0.063 0.005-0.096-0.038-0.137-0.069z"></path>
<path d="M2.731 16.492c-0.177-0.154-0.392-0.259-0.596-0.381 0.402 0.061 0.967 0.561 1.045 0.928-0.182-0.186-0.274-0.395-0.449-0.547z"></path>
<path d="M5.994 15.729c-0.168-0.131-0.284-0.305-0.289-0.449 0.083 0.149 0.197 0.283 0.289 0.449z"></path>
<path d="M1.238 17.767c0.184-0.113 0.345-0.264 0.615-0.31-0.082 0.136-0.231 0.133-0.32 0.207s-0.198 0.122-0.296 0.18c-0.036-0.036-0.022-0.062 0.001-0.076z"></path>
<path d="M7.044 15.484c-0.139-0.086-0.298-0.128-0.458-0.169 0.321-0.057 0.711 0.191 0.819 0.517-0.157-0.096-0.215-0.258-0.361-0.348z"></path>
<path d="M8.814 14.986c-0.243-0.060-0.481-0.136-0.727-0.187 0.598-0.003 1.565 0.321 1.994 0.89-0.228-0.099-0.355-0.312-0.577-0.419s-0.441-0.221-0.691-0.283z"></path>
<path d="M4.636 17.007c-0.054-0.002-0.119 0.027-0.17-0.048 0.457-0.081 0.857 0.042 1.244 0.224 0.342 0.161 0.509 0.308 0.535 0.494-0.316-0.41-0.769-0.554-1.239-0.667-0.119-0.028-0.246 0.002-0.37-0.002z"></path>
<path d="M9.844 17.337c-0.084-0.185 0.033-0.478 0.285-0.711-0.129 0.226-0.274 0.446-0.285 0.711z"></path>
<path d="M4.339 19.834c0.098-0.216 0.6-0.452 0.971-0.48 0.256-0.019 0.545 0.048 0.623 0.162-0.289-0.066-0.564-0.122-0.843-0.049-0.268 0.070-0.507 0.19-0.751 0.367z"></path>
<path d="M10.891 16.954c0.11 0.088 0.145 0.208 0.159 0.33 0.024 0.208-0.002 0.409-0.114 0.6-0.082 0.139-0.133 0.292-0.244 0.419-0.082 0.094-0.184 0.162-0.286 0.234-0.017 0.012-0.041 0.021-0.075-0.008 0.036-0.056 0.103-0.089 0.153-0.136 0.333-0.317 0.523-0.684 0.486-1.129-0.009-0.108-0.059-0.204-0.079-0.31z"></path>
<path d="M7.641 19.301c0.047-0.012 0.069-0.009 0.089 0.006 0.432 0.316 0.747 0.7 0.903 1.188 0.081 0.256 0.174 0.507 0.145 0.778-0.008 0.077-0.011 0.154-0.089 0.211 0.025-0.277 0.034-0.548-0.072-0.813-0.103-0.258-0.174-0.526-0.356-0.758-0.177-0.225-0.4-0.41-0.619-0.613z"></path>
<path d="M4.571 20.473c0.281 0.062 0.567 0.080 0.856 0.089-0.297 0.068-0.585 0.054-0.856-0.089z"></path>
<path d="M7.159 20.026c-0.009-0.018-0.023-0.037 0-0.057 0.046-0.015 0.066 0.016 0.078 0.044 0.103 0.225 0.316 0.365 0.499 0.528 0.1 0.089 0.194 0.184 0.288 0.279 0.009 0.009 0.004 0.029 0.005 0.043-0.038 0.028-0.055 0-0.072-0.018-0.158-0.165-0.333-0.313-0.511-0.46-0.124-0.101-0.22-0.22-0.287-0.358z"></path>
<path d="M4.467 21.676c0.013-0.008 0.033-0.008 0.076-0.017-0.042 0.1-0.113 0.136-0.179 0.179-0.168 0.107-0.33 0.217-0.468 0.361-0.194 0.203-0.289 0.433-0.311 0.695-0.004 0.051 0.014 0.107-0.027 0.154-0.059 0.001-0.044-0.041-0.044-0.067 0.001-0.295 0.088-0.559 0.302-0.795 0.186-0.205 0.418-0.356 0.65-0.509z"></path>
<path d="M4.454 22.469c0.056-0.126 0.105-0.254 0.134-0.422 0.138 0.332-0.366 0.941-0.732 1.051 0.123-0.129 0.263-0.193 0.348-0.305 0.082-0.109 0.195-0.198 0.251-0.325z"></path>
<path d="M15.918 7.148c-0.058 0.015-0.115 0.034-0.173 0.049-0.434 0.112-0.87 0.22-1.289 0.377-0.243 0.091-0.489 0.175-0.73 0.27-0.143 0.055-0.281 0.119-0.413 0.193-0.358 0.206-0.705 0.425-1.027 0.678-0.358 0.281-0.686 0.587-0.965 0.93-0.335 0.413-0.621 0.853-0.796 1.344-0.14 0.393-0.277 0.787-0.33 1.198-0.021 0.162-0.020 0.327-0.028 0.491-0.014 0.316-0.011 0.63 0.029 0.946 0.038 0.302 0.076 0.603 0.151 0.899 0.077 0.301 0.14 0.605 0.233 0.903 0.058 0.185 0.127 0.371 0.243 0.538 0.054 0.078 0.086 0.126 0.099 0.168 0.043 0.028 0.087 0.054 0.134 0.077l0.003-0.006c0.114 0.078 0.226 0.063 0.342 0.054 0.197-0.015 0.387-0.043 0.567-0.122 0.060-0.026 0.129-0.035 0.193-0.055 0.351-0.108 0.709-0.195 1.050-0.332 0.261-0.106 0.49-0.257 0.738-0.378 0.311-0.153 0.574-0.363 0.833-0.575 0.129-0.106 0.242-0.228 0.35-0.352 0.12-0.139 0.227-0.287 0.338-0.431 0.286-0.371 0.527-0.762 0.699-1.186 0.097-0.24 0.188-0.482 0.23-0.735 0.034-0.204 0.065-0.409 0.095-0.613 0.078-0.531 0.095-1.063 0.051-1.597-0.037-0.454-0.088-0.907-0.135-1.36-0.026-0.254-0.053-0.508-0.087-0.761-0.020-0.151-0.049-0.3-0.087-0.448-0.039-0.154-0.151-0.207-0.319-0.165zM16.157 7.393c0.025 0.138 0.042 0.277 0.059 0.416 0.047 0.399 0.097 0.797 0.137 1.196 0.027 0.284 0.044 0.569 0.058 0.855 0.016 0.315 0.040 0.631 0.029 0.946-0.010 0.303-0.050 0.605-0.095 0.906-0.039 0.264-0.069 0.532-0.173 0.785-0.103 0.25-0.202 0.503-0.325 0.745-0.204 0.399-0.478 0.761-0.772 1.11-0.151 0.179-0.309 0.354-0.515 0.488-0.016 0.011-0.031 0.023-0.046 0.036-0.338 0.307-0.76 0.505-1.173 0.709-0.343 0.17-0.719 0.277-1.096 0.378-0.097 0.026-0.199 0.042-0.29 0.081-0.2 0.085-0.416 0.096-0.629 0.124-0.079 0.010-0.146-0.010-0.209-0.046 0.026-0.226 0.629-1.681 0.852-2.054 0.106-0.023 0.223-0.052 0.342-0.074 0.385-0.071 0.763-0.161 1.124-0.301 0.136-0.053 0.28-0.091 0.416-0.143 0.547-0.208 1.085-0.434 1.595-0.708 0.058-0.031 0.113-0.066 0.165-0.105 0.021-0.016 0.028-0.047 0.054-0.099-1.168 0.588-2.339 1.083-3.646 1.321 0.018-0.052 0.028-0.086 0.043-0.119 0.086-0.191 0.179-0.38 0.257-0.574 0.043-0.108 0.105-0.176 0.238-0.191 0.218-0.025 0.408-0.125 0.608-0.198 0.034-0.012 0.063-0.037 0.133-0.079-0.074-0.003-0.105-0.012-0.13-0.005-0.089 0.028-0.177 0.059-0.264 0.094-0.136 0.055-0.278 0.084-0.451 0.118l0.124-0.243c0.403-0.030 0.752-0.176 1.101-0.318 0.1-0.041 0.216-0.065 0.315-0.168-0.188 0.023-0.304 0.128-0.449 0.169-0.142 0.040-0.281 0.085-0.423 0.126-0.146 0.042-0.286 0.116-0.468 0.082 0.019-0.053 0.031-0.105 0.055-0.153 0.182-0.359 0.376-0.713 0.612-1.047 0.043-0.061 0.074-0.129 0.106-0.196 0.037-0.078 0.097-0.125 0.188-0.152 0.332-0.102 0.663-0.207 0.992-0.316 0.47-0.154 0.923-0.343 1.367-0.55 0.033-0.015 0.059-0.042 0.075-0.087-0.029 0.006-0.059 0.008-0.086 0.018-0.179 0.071-0.362 0.136-0.535 0.218-0.385 0.182-0.796 0.303-1.2 0.439-0.152 0.051-0.305 0.1-0.458 0.147-0.048 0.015-0.099 0.020-0.18 0.036 0.193-0.395 0.434-0.729 0.682-1.063 0.146 0.001 0.264-0.053 0.357-0.161-0.079 0.026-0.158 0.053-0.261 0.087 0.013-0.041 0.015-0.069 0.029-0.090 0.337-0.505 0.71-0.989 1.118-1.45 0.041-0.048 0.091-0.090 0.134-0.137 0.045-0.049 0.098-0.096 0.11-0.186-0.21 0.106-0.323 0.274-0.481 0.428-0.047-0.097-0.046-0.187-0.066-0.272s-0.007-0.179-0.072-0.268c-0.036 0.129 0 0.427 0.073 0.625l-0.189 0.24-0.13-0.184c-0.044 0.083 0.001 0.135 0.017 0.188s0.027 0.102-0.014 0.155c-0.172 0.225-0.339 0.453-0.519 0.695-0.028-0.044-0.056-0.076-0.069-0.111-0.063-0.179-0.124-0.358-0.18-0.54-0.064-0.204-0.12-0.411-0.183-0.615-0.014-0.045-0.019-0.098-0.101-0.117-0.006 0.026-0.022 0.053-0.016 0.074 0.077 0.283 0.152 0.566 0.238 0.847 0.049 0.158 0.107 0.313 0.176 0.465 0.041 0.090 0.031 0.159-0.031 0.236-0.379 0.468-0.667 0.985-0.964 1.496-0.131 0.226-0.277 0.445-0.413 0.669-0.064 0.106-0.119 0.215-0.192 0.347-0.198-0.261-0.291-0.537-0.409-0.803s-0.225-0.53-0.337-0.797c-0.112-0.27-0.17-0.555-0.289-0.861-0.031 0.059-0.055 0.083-0.053 0.106 0.005 0.043 0.015 0.084 0.032 0.124 0.087 0.242 0.143 0.493 0.254 0.73 0.086 0.184 0.142 0.379 0.222 0.566 0.14 0.328 0.269 0.662 0.462 0.97 0.044 0.069 0.049 0.135 0.011 0.207-0.044 0.082-0.085 0.165-0.133 0.258-0.219-0.191-0.234-0.464-0.4-0.667 0.049 0.279 0.18 0.529 0.331 0.785l-0.529 1.145c-0.194-0.106-0.205-0.327-0.405-0.452 0.059 0.235 0.215 0.392 0.326 0.588l-0.252 0.578c-0.155-0.152-0.251-0.323-0.337-0.494-0.125-0.248-0.232-0.505-0.334-0.762-0.075-0.188-0.13-0.383-0.196-0.574-0.012-0.030-0.027-0.059-0.043-0.087-0.039 0.091 0.026 0.373 0.156 0.696 0.094 0.234 0.188 0.468 0.294 0.697 0.103 0.222 0.229 0.436 0.407 0.629-0.069 0.235-0.368 0.954-0.446 1.063-0.091-0.117-0.17-0.237-0.214-0.37-0.133-0.401-0.239-0.809-0.329-1.22-0.084-0.388-0.159-0.777-0.164-1.172-0.005-0.43-0.028-0.863 0.070-1.288 0.055-0.243 0.136-0.481 0.21-0.72 0.034-0.117 0.075-0.233 0.124-0.346 0.249-0.562 0.59-1.076 1.036-1.531 0.061-0.062 0.129-0.118 0.197-0.179 0.104 0.112 0.066 0.271 0.216 0.391l-0.123-0.469c0.104-0.155 0.265-0.257 0.415-0.369 0.37-0.275 0.755-0.533 1.186-0.726 0.223-0.1 0.455-0.183 0.684-0.272 0.193-0.074 0.382-0.154 0.58-0.214 0.243-0.073 0.492-0.129 0.739-0.192 0.104-0.026 0.207-0.054 0.312-0.078 0.153-0.035 0.215-0.001 0.241 0.139z"></path>
<path d="M16.149 9.030l0.027 0.033c-0.015 0.012-0.030 0.023-0.046 0.033-0.198 0.103-0.394 0.208-0.593 0.308-0.049 0.025-0.103 0.055-0.187 0.007 0.293-0.109 0.525-0.282 0.8-0.381z"></path>
<path d="M16.116 9.407c-0.027 0.080-0.096 0.1-0.153 0.125-0.368 0.163-0.738 0.325-1.108 0.486-0.085 0.037-0.171 0.071-0.258 0.104-0.022 0.008-0.049 0.005-0.083 0.008 0.012-0.067 0.067-0.079 0.112-0.099 0.4-0.174 0.8-0.348 1.2-0.523 0.060-0.027 0.114-0.065 0.175-0.090 0.031-0.013 0.071-0.008 0.116-0.012z"></path>
<path d="M15.386 9.188c0.095-0.106 0.312-0.23 0.473-0.269-0.054 0.091-0.325 0.245-0.473 0.269z"></path>
<path d="M15.755 9.865c0.041-0.073 0.103-0.112 0.198-0.099-0.033 0.018-0.064 0.038-0.098 0.055s-0.067 0.030-0.1 0.044z"></path>
<path d="M14.852 7.665c0.059 0.059 0.059 0.059 0.094 0.233 0.018 0.089 0.044 0.178 0.048 0.268 0.003 0.085 0.081 0.167 0.008 0.28-0.111-0.198-0.193-0.653-0.15-0.78z"></path>
<path d="M15.39 9.943c0.010-0.004 0.025 0.003 0.058 0.008-0.126 0.101-1.14 0.538-1.368 0.592-0.020 0.005-0.044-0.003-0.072-0.006 0.012-0.022 0.014-0.038 0.022-0.041 0.453-0.185 0.906-0.369 1.36-0.553z"></path>
<path d="M14.61 8.261c0.014 0 0.029-0.001 0.043-0.002 0.066 0.201 0.132 0.402 0.196 0.603 0.004 0.014-0.009 0.033-0.014 0.049-0.016-0.003-0.036-0.001-0.040-0.007-0.109-0.181-0.133-0.387-0.2-0.581-0.006-0.018 0.009-0.042 0.014-0.062z"></path>
<path d="M14.806 9.657c0.129-0.072 0.263-0.131 0.405-0.18-0.136 0.148-0.231 0.191-0.405 0.18z"></path>
<path d="M15.742 12.127c0.057-0.034 0.109-0.095 0.212-0.067-0.076 0.104-0.191 0.154-0.293 0.21-0.238 0.13-0.448 0.311-0.771 0.36 0.031-0.039 0.036-0.053 0.046-0.056 0.3-0.104 0.545-0.288 0.807-0.447z"></path>
<path d="M14.435 8.515c0.089 0.143 0.071 0.283 0.111 0.41-0.108-0.102-0.143-0.24-0.111-0.41z"></path>
<path d="M15.445 11.006c-0.057 0.031-0.086 0.049-0.116 0.062-0.286 0.122-0.573 0.244-0.861 0.364-0.031 0.013-0.070 0.010-0.128 0.018 0.162-0.127 0.885-0.418 1.105-0.444z"></path>
<path d="M14.481 9.313c0.010 0.020-0.005 0.049-0.011 0.090-0.103-0.123-0.162-0.302-0.146-0.438 0.112 0.104 0.101 0.239 0.156 0.347z"></path>
<path d="M15.032 10.948c-0.005 0.026-0.002 0.043-0.009 0.047-0.364 0.205-0.79 0.272-1.177 0.425-0.014 0.005-0.035-0.005-0.061-0.010 0.028-0.073 0.095-0.086 0.157-0.107 0.19-0.061 0.382-0.117 0.571-0.181 0.145-0.049 0.285-0.107 0.428-0.159 0.026-0.010 0.057-0.010 0.090-0.015z"></path>
<path d="M13.693 8.116c0.019 0.042 0.047 0.083 0.056 0.126 0.087 0.415 0.189 0.828 0.32 1.234 0.002 0.006-0.014 0.017-0.026 0.033-0.071-0.064-0.091-0.147-0.112-0.227-0.081-0.305-0.157-0.612-0.236-0.918-0.015-0.059-0.036-0.116-0.050-0.175-0.005-0.021 0.003-0.044 0.005-0.067l0.043-0.006z"></path>
<path d="M15.121 13.332c0.091-0.096 0.384-0.245 0.533-0.284-0.059 0.102-0.172 0.119-0.253 0.169-0.085 0.051-0.172 0.106-0.28 0.115z"></path>
<path d="M13.722 8.698c0.007 0.013-0.016 0.038-0.027 0.065-0.099-0.141-0.109-0.178-0.081-0.327 0.091 0.076 0.066 0.181 0.108 0.261z"></path>
<path d="M14.604 12.461c0.104-0.104 0.418-0.249 0.614-0.284-0.089 0.093-0.456 0.262-0.614 0.284z"></path>
<path d="M14.865 11.718c0.028-0.012 0.062-0.013 0.094-0.019-0.478 0.268-0.982 0.478-1.493 0.677-0.021 0.008-0.049-0.001-0.077-0.002 0.007-0.020 0.007-0.037 0.015-0.041 0.486-0.206 0.973-0.41 1.46-0.614z"></path>
<path d="M14.11 10.255c0.060-0.050 0.060-0.050 0.136-0.052-0.024 0.064-0.067 0.074-0.136 0.052z"></path>
<path d="M14.513 13.013c0.153-0.127 0.485-0.277 0.709-0.328-0.14 0.088-0.257 0.134-0.364 0.193s-0.216 0.116-0.345 0.135z"></path>
<path d="M15.313 13.455c-0.022 0.025-0.039 0.056-0.067 0.072-0.445 0.247-1.475 0.69-1.684 0.688 0.045-0.093 0.148-0.104 0.228-0.137 0.153-0.063 0.31-0.118 0.466-0.173 0.303-0.107 0.579-0.258 0.865-0.394 0.057-0.028 0.116-0.052 0.192-0.056z"></path>
<path d="M13.656 9.46c0.069 0.114 0.086 0.205 0.064 0.299-0.036-0.089-0.112-0.169-0.064-0.299z"></path>
<path d="M14.462 12.805c0.112-0.040 0.217-0.111 0.364-0.101-0.132 0.096-0.519 0.244-0.682 0.265 0.032-0.059 0.031-0.063 0.318-0.165z"></path>
<path d="M13.239 9.309c0.035 0.039 0.065 0.060 0.074 0.086 0.082 0.236 0.162 0.474 0.243 0.71 0.016 0.046 0.040 0.089 0.053 0.136 0.009 0.032 0.003 0.067 0.004 0.101-0.124-0.121-0.362-0.826-0.374-1.033z"></path>
<path d="M14.236 11.749l0.018 0.033c-0.021 0.021-0.044 0.040-0.069 0.058-0.062 0.037-0.858 0.338-0.956 0.362-0.009-0.053 0.027-0.077 0.069-0.093 0.16-0.064 0.322-0.124 0.481-0.189 0.129-0.052 0.254-0.11 0.383-0.162 0.021-0.009 0.049-0.005 0.074-0.008z"></path>
<path d="M14.081 11.511c-0.027 0.018-0.050 0.043-0.081 0.055-0.318 0.122-0.501 0.162-0.665 0.147-0.001-0.006 0-0.012 0.001-0.018s0.005-0.010 0.010-0.013c0.023-0.011 0.047-0.021 0.073-0.029 0.216-0.053 0.433-0.106 0.661-0.142z"></path>
<path d="M14.899 13.43c-0.093 0.073-0.154 0.095-0.246 0.088 0.051-0.094 0.127-0.085 0.246-0.088z"></path>
<path d="M12.696 8.81c0.023 0.009 0.042 0.012 0.044 0.019 0.144 0.523 0.337 1.032 0.518 1.544 0.003 0.008-0.011 0.020-0.033 0.055-0.071-0.097-0.125-0.201-0.162-0.312-0.109-0.313-0.217-0.625-0.319-0.939-0.032-0.099-0.045-0.202-0.064-0.303-0.004-0.019 0.009-0.041 0.015-0.064z"></path>
<path d="M13.265 10.65c0.085 0.084 0.145 0.176 0.126 0.32-0.102-0.103-0.141-0.203-0.126-0.32z"></path>
<path d="M14.214 13.678c0.069-0.025 0.134-0.076 0.228-0.049-0.247 0.218-1.866 0.736-2.2 0.699 0.049-0.027 0.077-0.050 0.11-0.059 0.321-0.090 0.646-0.167 0.964-0.267 0.304-0.096 0.599-0.215 0.898-0.323z"></path>
<path d="M12.961 10.389c0.095 0.237 0.187 0.475 0.279 0.713 0.001 0.004-0.018 0.015-0.053 0.042-0.15-0.271-0.244-0.546-0.337-0.822-0.004-0.012 0.012-0.029 0.029-0.067 0.035 0.056 0.066 0.093 0.083 0.134z"></path>
<path d="M12.658 9.772c0.087 0.127 0.113 0.244 0.157 0.357-0.082 0.021-0.099-0.031-0.108-0.064-0.023-0.086-0.103-0.165-0.049-0.293z"></path>
<path d="M13.622 13.302c0.286-0.127 0.426-0.169 0.552-0.168-0.186 0.115-0.379 0.179-0.552 0.168z"></path>
<path d="M12.143 9.143c0.067-0.010 0.073 0.042 0.085 0.077 0.050 0.144 0.095 0.29 0.142 0.434 0.107 0.331 0.213 0.662 0.369 0.978 0.020 0.041 0.025 0.089 0.036 0.133-0.014 0.004-0.028 0.007-0.042 0.011-0.017-0.017-0.039-0.032-0.048-0.052-0.233-0.503-0.392-1.027-0.561-1.549-0.002-0.008 0.011-0.020 0.018-0.033z"></path>
<path d="M13.396 12.768c0.072-0.082 0.176-0.091 0.274-0.113-0.068 0.085-0.167 0.11-0.274 0.113z"></path>
<path d="M13.598 12.905c-0.021 0.030-0.027 0.052-0.041 0.058-0.323 0.133-0.654 0.249-0.997 0.336-0.035 0.009-0.076 0.001-0.125 0 0.012-0.033 0.012-0.041 0.016-0.043 0.022-0.012 0.046-0.022 0.071-0.031 0.353-0.105 0.706-0.21 1.077-0.32z"></path>
<path d="M14.188 14.596c-0.029 0.024-0.049 0.045-0.073 0.059-0.378 0.213-0.784 0.373-1.197 0.516-0.021 0.007-0.049 0-0.106-0.001 0.053-0.032 0.077-0.054 0.106-0.064 0.423-0.142 0.818-0.335 1.215-0.525 0.008-0.004 0.024 0.006 0.055 0.015z"></path>
<path d="M12.178 9.809c0.108 0.088 0.135 0.177 0.136 0.318-0.098-0.105-0.142-0.188-0.136-0.318z"></path>
<path d="M13.106 12.411c-0.082 0.049-0.128 0.072-0.188 0.016l0.188-0.016z"></path>
<path d="M12.481 11.371c0.018 0.037 0.033 0.067-0.027 0.093-0.115-0.090-0.15-0.22-0.198-0.342-0.049-0.126-0.105-0.252-0.13-0.383 0.013-0.005 0.025-0.010 0.038-0.015 0.015 0.016 0.035 0.029 0.043 0.047 0.034 0.072 0.063 0.146 0.096 0.219 0.058 0.127 0.117 0.254 0.178 0.381z"></path>
<path d="M13.624 15.081c0.065-0.038 0.143-0.057 0.216-0.084-0.114 0.116-0.255 0.189-0.456 0.215 0.064-0.117 0.171-0.091 0.24-0.131z"></path>
<path d="M13.166 14.705c0.148-0.101 0.287-0.125 0.419-0.164-0.104 0.095-0.222 0.163-0.419 0.164z"></path>
<path d="M12.475 12.513c0.004 0.007-0.010 0.021-0.021 0.041-0.117-0.085-0.154-0.211-0.209-0.321-0.097-0.191-0.228-0.371-0.265-0.585-0.001-0.006 0.017-0.015 0.028-0.021 0.005-0.003 0.014-0.001 0.022-0.002 0.149 0.296 0.298 0.592 0.446 0.889z"></path>
<path d="M11.742 11.741c0.105 0.061 0.135 0.129 0.155 0.237-0.111-0.062-0.139-0.131-0.155-0.237z"></path>
<path d="M13.034 15.34c0.061-0.030 0.124-0.074 0.206-0.037-0.2 0.153-0.878 0.391-1.176 0.407 0.046-0.031 0.072-0.054 0.104-0.067 0.043-0.017 0.088-0.031 0.134-0.040 0.256-0.061 0.5-0.148 0.732-0.262z"></path>
<path d="M12.915 14.813c0.028-0.008 0.056-0.014 0.085-0.018-0.060 0.078-0.059 0.079-0.307 0.18-0.123 0.049-0.248 0.096-0.371 0.142-0.119 0.043-0.236 0.090-0.359 0.121-0.116 0.029-0.225 0.102-0.399 0.064 0.073-0.035 0.108-0.057 0.148-0.070 0.165-0.053 0.333-0.099 0.496-0.156 0.236-0.083 0.471-0.175 0.707-0.263z"></path>
<path d="M12.070 13.011c0.055 0.080 0.116 0.116 0.069 0.199-0.066-0.045-0.104-0.087-0.069-0.199z"></path>
<path d="M11.944 12.746c0.024 0.053 0.075 0.104 0.033 0.169-0.1-0.068-0.1-0.068-0.193-0.272-0.050-0.112-0.101-0.223-0.151-0.336-0.047-0.107-0.096-0.213-0.138-0.321-0.040-0.104-0.116-0.203-0.047-0.324 0.093 0.211 0.185 0.424 0.281 0.634 0.070 0.151 0.145 0.299 0.214 0.45z"></path>
<path d="M10.884 10.964c0.045 0.037 0.075 0.051 0.083 0.071 0.065 0.171 0.137 0.341 0.185 0.517 0.064 0.241 0.154 0.475 0.269 0.7 0.036 0.069 0.082 0.14 0.054 0.236-0.031-0.012-0.049-0.014-0.053-0.021-0.148-0.272-0.276-0.55-0.35-0.846-0.052-0.209-0.169-0.405-0.189-0.656z"></path>
<path d="M12.457 15.31c0.006-0.001 0.017 0.014 0.037 0.031-0.029 0.016-0.052 0.037-0.080 0.044-0.316 0.081-0.617 0.209-0.945 0.254-0.015 0.002-0.033-0.010-0.077-0.024 0.048-0.022 0.074-0.037 0.102-0.045 0.321-0.088 0.642-0.175 0.963-0.261z"></path>
<path d="M11.961 15.012c-0.066 0.074-0.153 0.097-0.284 0.086 0.093-0.085 0.195-0.068 0.284-0.086z"></path>
<path d="M11.492 14.51c0.004 0.008-0.008 0.022-0.019 0.047-0.193-0.193-0.333-0.489-0.311-0.645 0.012 0.004 0.031 0.005 0.035 0.012 0.1 0.194 0.198 0.389 0.295 0.586z"></path>
<path d="M10.928 13.291c0.124 0.104 0.077 0.232 0.148 0.325-0.081-0.028-0.082-0.028-0.118-0.131-0.019-0.054-0.062-0.105-0.030-0.194z"></path>
<path d="M10.711 14.258c0.161 0.212 0.28 0.443 0.443 0.679-0.118 0.002-0.141-0.051-0.167-0.097-0.106-0.188-0.274-0.353-0.276-0.582z"></path>
</symbol>
    </defs>
</svg>