<svg width="173" height="173" viewBox="0 0 173 173" fill="none" xmlns="http://www.w3.org/2000/svg">
<path d="M84.5624 40.7701C83.4437 41.0354 82.2557 41.7389 81.2985 42.6731C78.5074 45.4296 78.3921 49.8469 81.0447 52.6956C82.1981 53.9527 83.4552 54.6563 85.0929 54.9677C86.1886 55.1753 86.7653 55.1753 87.8609 54.9446C90.2945 54.4487 92.4973 52.5572 93.3047 50.2736C93.6622 49.2471 93.7545 47.0789 93.4777 46.0293C93.1317 44.6915 92.5665 43.7457 91.4709 42.6731C90.3867 41.6005 89.4756 41.07 88.1954 40.7701C87.3304 40.5625 85.4043 40.5625 84.5624 40.7701Z" fill="#436850"/>
<path d="M53.8145 42.1657C53.1802 42.3964 52.9726 42.604 52.7535 43.296C52.3267 44.5416 52.5805 46.779 53.3647 48.9012C54.4258 51.7384 55.9943 54.1373 58.3587 56.5132C60.4808 58.6468 62.8797 59.9847 68.335 62.1068C72.5562 63.7446 73.3751 64.0675 74.6668 64.6672C77.1695 65.809 78.7611 66.9047 79.9145 68.3002C80.6641 69.2114 81.5637 71.0336 81.8982 72.3138C82.2557 73.6978 82.3134 75.7046 82.0597 77.3308C81.6906 79.7067 80.5719 82.5324 79.3839 84.0548C78.8534 84.7352 78.0345 85.4618 77.7923 85.4618C77.6424 85.4618 77.0888 84.8736 75.8893 83.455C74.9782 82.3709 73.9517 81.4828 72.6946 80.6524C71.5643 79.9143 70.7801 79.5452 67.4123 78.1728C60.8845 75.5201 57.1477 73.2711 54.4027 70.3532C51.8539 67.6428 50.5506 64.7364 50.0431 60.619C49.8355 58.889 49.9739 55.0715 50.3315 52.661C50.4929 51.5884 50.5967 50.6658 50.5621 50.6081C50.1585 49.9622 48.5899 52.5457 47.2521 56.0518C45.6259 60.3076 44.8762 64.3558 44.7839 69.5112C44.7032 73.6978 45.0031 76.6619 45.8911 80.341C47.8518 88.4028 52.8457 96.9721 59.0507 102.912C61.9455 105.691 63.4795 106.879 67.2393 109.267C70.6532 111.435 70.5148 111.354 70.7339 111.262C71.3337 111.031 70.3995 108.932 68.7041 106.695C66.5704 103.881 61.5188 98.6098 58.5893 96.1302C56.5479 94.4002 55.3254 93.1546 54.6449 92.0935C53.9645 91.0555 52.1537 87.5609 52.3729 87.7224C52.4536 87.7916 52.9957 88.2068 53.5608 88.645C54.1259 89.0833 55.4177 90.0867 56.4441 90.8825C57.4706 91.6783 59.2698 92.9931 60.4347 93.7889C62.9835 95.542 64.1023 96.43 65.4171 97.7218C67.6545 99.9477 70.3649 103.811 71.9219 106.995C73.3405 109.901 74.0786 112.669 74.6207 117.121C74.8167 118.701 75.0243 120.119 75.082 120.258C75.255 120.685 75.6125 120.592 75.8086 120.073C76.3276 118.782 76.6967 115.61 76.6967 112.461C76.6967 107.606 75.7855 103.788 73.5596 99.3595C71.3221 94.8961 68.3004 91.7129 63.6063 88.8757C59.6389 86.4652 57.6551 84.989 55.8213 83.086C53.6069 80.7793 51.7847 77.9421 50.6659 75.0472C50.3084 74.1246 49.7894 72.1985 49.8701 72.1178C49.8817 72.1062 50.343 72.6483 50.8851 73.3288C53.4224 76.512 55.3715 78.3342 57.609 79.626C58.1165 79.9143 59.8234 80.7216 61.3919 81.4252C62.9605 82.1172 64.7712 82.9591 65.4055 83.282C69.9958 85.6348 74.1017 89.7407 77.0196 94.8846C78.5189 97.5026 79.2686 99.694 79.8107 102.992C79.9837 104.1 80.0413 104.965 80.0413 106.741C80.0413 110.455 80.2605 120.085 80.3989 121.907C80.5949 124.698 81.2754 127.904 82.3365 131.134C83.4321 134.421 84.2279 136.012 84.7008 135.828C84.8969 135.747 84.9084 134.974 84.8277 119.105C84.7585 102.531 84.7008 100.19 84.3548 98.3676C84.0088 96.5108 83.1092 94.0772 82.1289 92.278C81.6214 91.3669 81.1831 90.4558 81.137 90.2366C80.9986 89.4524 81.3446 88.7373 82.5441 87.4225C82.8555 87.0765 83.2822 86.5344 83.4898 86.2346C84.0203 85.4503 85.2544 82.8207 85.6235 81.6904C85.9695 80.6409 86.3847 79.0032 86.3962 78.6226C86.3962 78.4842 86.5231 78.9109 86.673 79.5798C87.019 81.1022 87.5149 82.5324 88.2415 84.0548C89.0258 85.7156 89.5217 86.5114 90.4444 87.5263C91.4593 88.6681 91.863 89.4408 91.7592 90.1098C91.7131 90.3981 91.3094 91.2746 90.7673 92.255C89.2219 95.0691 88.4376 97.8256 88.2415 101.089C88.1723 102.104 88.0916 110.316 88.057 119.347C87.9878 134.444 87.9993 135.759 88.1723 135.816C88.5068 135.943 88.8989 135.413 89.4756 134.029C90.5713 131.457 91.6669 127.674 92.1398 124.894C92.5089 122.772 92.6011 121.077 92.728 114.007C92.9356 102.958 92.8895 103.719 93.2931 101.816C94.0543 98.1831 95.1154 95.7611 97.4336 92.3818C99.6595 89.141 102.589 86.2576 105.599 84.3546C106.96 83.5012 108.24 82.8668 111.608 81.3675C114.641 80.0296 115.991 79.2915 117.306 78.2535C118.517 77.2962 120.385 75.3586 121.792 73.6056C122.449 72.7752 123.003 72.1062 123.026 72.1293C123.095 72.1985 122.496 74.3783 122.196 75.151C120.973 78.2189 118.816 81.4367 116.475 83.6857C114.676 85.4042 112.854 86.7305 109.774 88.5758C104.653 91.6322 101.747 94.6308 99.3481 99.3249C97.9757 102.035 97.0299 104.803 96.5225 107.663C96.2803 109.001 96.2457 109.509 96.2457 112.45C96.2457 115.714 96.3264 116.706 96.7185 118.735C96.9723 119.981 97.1914 120.523 97.4682 120.523C97.8027 120.523 97.8834 120.2 98.1487 117.986C98.7599 112.784 99.4289 110.178 100.928 107.087C102.451 103.95 105.172 100.04 107.398 97.8025C108.736 96.4646 109.867 95.565 112.277 93.9158C114.019 92.7278 115.656 91.5053 119.531 88.4951L120.685 87.607L119.739 89.4178C119.22 90.4212 118.563 91.6091 118.263 92.0704C117.582 93.1315 116.268 94.4809 114.295 96.1302C112.565 97.5834 107.767 102.381 106.13 104.284C103.408 107.49 101.782 110.132 102.001 111.008C102.093 111.377 102.428 111.377 102.912 111.02C103.12 110.87 104.296 110.109 105.53 109.336C109.244 107.006 111.031 105.622 113.857 102.9C120.696 96.2916 125.667 87.2956 127.432 78.3573C128.435 73.2711 128.401 67.2507 127.328 61.9338C126.532 57.9664 125.056 54.0104 123.407 51.45C122.922 50.7004 122.749 50.5158 122.553 50.5389C122.253 50.585 122.265 50.7465 122.599 52.9378C122.957 55.1753 123.038 59.1889 122.784 61.0804C122.126 65.8667 120.05 69.4305 116.106 72.5214C113.753 74.3668 110.097 76.3044 105.299 78.2535C102.174 79.5222 101.136 80.0181 100.017 80.7678C98.8291 81.5636 97.8834 82.4055 96.9838 83.4781C95.842 84.8275 95.2423 85.4618 95.0923 85.4618C94.8386 85.4618 94.0082 84.7122 93.4777 84.0202C92.3935 82.5785 91.4824 80.4564 90.9749 78.1843C90.6289 76.6273 90.6059 73.7324 90.9288 72.5445C91.6093 70.0187 92.6934 68.2772 94.4811 66.847C96.0611 65.5784 98.1141 64.5865 102.993 62.7181C108.021 60.7805 110.685 59.5349 112.508 58.2662C114.088 57.159 116.337 54.7255 117.663 52.6956C119.451 49.9507 120.593 46.2024 120.293 44.0802C120.154 43.0768 119.912 42.5924 119.405 42.2926C118.955 42.0273 117.928 41.912 117.502 42.085C116.994 42.281 116.867 42.627 116.717 44.1725C116.648 44.9683 116.51 45.9486 116.406 46.3638C115.437 50.3313 111.458 54.5294 106.799 56.4901L105.703 56.9514L103.05 57.1475C101.597 57.2513 98.5869 57.3782 96.361 57.4358C91.2287 57.5742 90.3752 57.678 89.0027 58.37C87.7917 58.9813 87.1459 59.731 86.6615 61.0573L86.4193 61.7493L86.327 61.3572C86.1886 60.6998 85.5773 59.6618 85.0468 59.1774C84.5047 58.6699 83.4667 58.1048 82.7286 57.9087C81.7367 57.6434 80.445 57.5396 76.466 57.4358C71.6335 57.309 67.5392 57.0322 66.7895 56.7784C65.8899 56.4786 64.2291 55.6251 63.1796 54.9331C59.9964 52.8225 57.5167 49.7777 56.6517 46.9405C56.3749 46.0524 56.3288 45.7872 56.1673 44.1148C56.0981 43.4113 55.9943 42.7078 55.9251 42.5348C55.706 42.0042 54.7257 41.8312 53.8145 42.1657ZM77.5386 60.2154C81.0678 60.7459 83.5244 62.1991 85.6696 65.0132C86.0156 65.4746 86.3616 65.8552 86.4423 65.8552C86.5231 65.8552 86.8575 65.5092 87.1689 65.0709C87.8609 64.1598 89.0719 62.9257 89.9485 62.2798C91.8745 60.8612 94.5503 60.0885 97.5489 60.0885C99.5673 60.0885 99.5673 60.1577 97.6181 60.8266C96.6724 61.1611 95.4845 61.6455 94.977 61.9108C92.8895 63.0064 90.8481 64.8979 89.3603 67.1123C87.9993 69.1537 87.2843 70.7453 86.7422 72.9366L86.4193 74.2053L86.2809 73.4556C85.5773 69.7419 82.8901 65.4515 79.8337 63.1448C78.5074 62.153 76.985 61.3802 75.1051 60.769C73.9171 60.3768 73.6288 60.25 73.8364 60.1923C74.2747 60.0654 76.6505 60.077 77.5386 60.2154Z" fill="#436850"/>
<path d="M65.5439 66.1433C64.9788 66.3855 64.8981 66.6623 64.9673 67.9771C65.0019 68.6229 65.0595 69.2227 65.0941 69.3265C65.2441 69.6955 65.7861 69.857 67.0433 69.9377C68.4503 70.03 69.0501 70.2376 70.3303 71.0911C72.2448 72.3713 73.9633 74.5741 75.2204 77.3306C75.7048 78.3917 75.9931 79.1875 76.5467 81.0213C76.7197 81.6095 76.8005 81.7133 77.0542 81.7479C77.4233 81.794 77.6539 81.5287 77.8961 80.8137C78.2767 79.6949 78.4497 78.1033 78.3921 76.4079C78.3459 74.9778 78.2998 74.6664 77.9769 73.6976C77.4694 72.1867 76.7197 70.9757 75.5433 69.7763C74.1247 68.3346 72.2563 67.1697 70.3533 66.5469C68.681 66.0049 66.3167 65.8088 65.5439 66.1433Z" fill="#436850"/>
<path d="M104.665 66.0514C101.839 66.4204 98.5754 68.1965 96.8108 70.3302C95.0347 72.4754 94.3657 74.5399 94.4926 77.4809C94.5964 79.9721 95.1039 81.679 95.7497 81.7482C96.1188 81.7944 96.0727 81.9097 96.7993 79.6261C97.7335 76.7312 99.0367 74.4476 100.767 72.6484C102.543 70.8031 103.938 70.065 105.83 69.9496C107.122 69.8689 107.56 69.742 107.744 69.3845C107.94 69.027 108.01 66.8702 107.837 66.5588C107.618 66.1436 107.029 65.9706 105.968 65.9822C105.438 65.9937 104.861 66.0283 104.665 66.0514Z" fill="#436850"/>
<path d="M84.9199 86.6151C84.078 88.1951 83.386 89.5676 83.386 89.6483C83.386 89.7867 84.6431 93.3851 85.9464 96.9835L86.4193 98.2983L87.0882 96.4069C87.4688 95.3689 88.1608 93.4313 88.6567 92.1049C89.1411 90.7901 89.5333 89.6483 89.5333 89.5676C89.5333 89.4407 86.6615 83.9739 86.5231 83.824C86.4769 83.7779 85.7503 85.035 84.9199 86.6151Z" fill="#436850"/>
</svg>
